<svg xmlns="http://www.w3.org/2000/svg" width="162.3841094970703" height="179.80923461914062" viewBox="9.771514892578125 14.05029296875 162.3841094970703 179.80923461914062"><title>Neo4j Graph Visualization</title><desc>Created using Neo4j (http://www.neo4j.com/)</desc><g class="layer relationships"><g class="relationship" transform="translate(38.771513319957066 63.22570421537519) rotate(432.93797036707036)"><path class="outline" fill="#A5ABB6" stroke="none" d="M 25 0.5 L 32.43379315388848 0.5 L 32.43379315388848 -0.5 L 25 -0.5 Z M 66.87910565388847 0.5 L 74.31289880777696 0.5 L 74.31289880777696 3.5 L 81.31289880777696 0 L 74.31289880777696 -3.5 L 74.31289880777696 -0.5 L 66.87910565388847 -0.5 Z"/><text text-anchor="middle" pointer-events="none" font-size="8px" fill="#000000" x="49.65644940388848" y="3" font-family="sans-serif">ORIGIN</text></g><g class="relationship" transform="translate(38.771513319957066 63.22570421537519) rotate(349.06073204226936)"><path class="outline" fill="#A5ABB6" stroke="none" d="M 25 0.5 L 25.322054848543146 0.5 L 25.322054848543146 -0.5 L 25 -0.5 Z M 73.99392984854315 0.5 L 74.3159846970863 0.5 L 74.3159846970863 3.5 L 81.3159846970863 0 L 74.3159846970863 -3.5 L 74.3159846970863 -0.5 L 73.99392984854315 -0.5 Z"/><text text-anchor="middle" pointer-events="none" font-size="8px" fill="#000000" x="49.65799234854315" y="3" font-family="sans-serif">DESTINA…</text></g></g><g class="layer nodes"><g class="node" transform="translate(69.96444597846052,164.85952439878997)"><circle class="outline" cx="0" cy="0" r="25" fill="#F16667" stroke="#eb2728" stroke-width="2px"/><text text-anchor="middle" pointer-events="none" font-family="sans-serif" dy="1.5625" font-size="25" fill="#FFFFFF"/><text text-anchor="middle" pointer-events="none" x="0" y="5" font-size="10px" fill="#FFFFFF" font-family="sans-serif"> LAX</text></g><g class="node" transform="translate(143.1556179851031,43.05029107544363)"><circle class="outline" cx="0" cy="0" r="25" fill="#F16667" stroke="#eb2728" stroke-width="2px"/><text text-anchor="middle" pointer-events="none" font-family="sans-serif" dy="1.5625" font-size="25" fill="#FFFFFF"/><text text-anchor="middle" pointer-events="none" x="0" y="5" font-size="10px" fill="#FFFFFF" font-family="sans-serif"> SMF</text></g><g class="node" transform="translate(38.771513319957066,63.22570421537519)"><circle class="outline" cx="0" cy="0" r="25" fill="#D9C8AE" stroke="#c0a378" stroke-width="2px"/><text text-anchor="middle" pointer-events="none" font-family="sans-serif" dy="1.5625" font-size="25" fill="#2A2C34"/><text text-anchor="middle" pointer-events="none" x="0" y="5" font-size="10px" fill="#2A2C34" font-family="sans-serif"> 11/4/2015</text></g></g></svg>