<svg xmlns="http://www.w3.org/2000/svg" width="661.8995971679688" height="654.416259765625" viewBox="-240.04833984375 -227.4832305908203 661.8995971679688 654.416259765625"><title>Neo4j Graph Visualization</title><desc>Created using Neo4j (http://www.neo4j.com/)</desc><g class="layer relationships"><g class="relationship" transform="translate(72.85882234947697 -83.59443425601762) rotate(377.0817346452675)"><path class="outline" fill="#A5ABB6" stroke="none" d="M 21.40063509461097,12.933012701892217 L 21.90063509461097,12.06698729810778 A 72.80686895078928 72.80686895078928 0 0 0 46.729422222334264,20.89531648671573 L 46.570444813822235,21.882598707553726 A 73.80686895078928 73.80686895078928 0 0 1 21.40063509461097,12.933012701892217 Z M 65.97439508262426,22.421609643932896 L 65.87047080536311,21.427024431597744 A 72.80686895078928 72.80686895078928 0 0 0 91.15106546071813,13.990654324626096 L 89.79760816895158,11.313313599323477 L 97.62377003505199,11.278810764721246 L 92.95567518307352,17.560441958362922 L 91.60221789130698,14.883101233060302 A 73.80686895078928 73.80686895078928 0 0 1 65.97439508262426,22.421609643932896"/><text text-anchor="middle" pointer-events="none" font-size="8px" fill="#000000" x="56.26850632862293" y="25.292991261645042" font-family="sans-serif">trek</text></g><g class="relationship" transform="translate(187.5030394071122 -48.36527038989898) rotate(420.41074770706183)"><path class="outline" fill="#A5ABB6" stroke="none" d="M 24.018736134675446,-6.953439040707552 L 24.277555179777966,-5.987513214418485 A 178.6387072172185 178.6387072172185 0 0 1 45.28025432213802,-10.283485590127015 L 45.139006096201925,-11.273459801240591 A 179.6387072172185 179.6387072172185 0 0 0 24.018736134675446,-6.953439040707552 Z M 91.59967041643912,-11.832529324268165 L 91.48228471520017,-10.839442924630816 A 178.6387072172185 178.6387072172185 0 0 1 112.58227591210168,-7.050099787882542 L 111.87577245995467,-4.134477577769516 L 119.50314497772324,-5.887528767891698 L 113.52428051496435,-10.937596068033242 L 112.81777706281734,-8.021973857920218 A 179.6387072172185 179.6387072172185 0 0 0 91.59967041643912,-11.832529324268165"/><text text-anchor="middle" pointer-events="none" font-size="8px" fill="#000000" x="68.35720259013843" y="-9.561511553155498" font-family="sans-serif">twowheeler</text></g><g class="relationship" transform="translate(258.5084228378776 76.68141922247764) rotate(424.3558866887871)"><path class="outline" fill="#A5ABB6" stroke="none" d="M 24.018736134675446,-6.953439040707552 L 24.277555179777966,-5.987513214418485 A 142.96392394118894 142.96392394118894 0 0 1 36.30195088163598,-8.660067315999925 L 36.12723973851581,-9.644687047911503 A 143.96392394118894 143.96392394118894 0 0 0 24.018736134675446,-6.953439040707552 Z M 82.54615782438034,-10.279424986296533 L 82.39843459078244,-9.290396247454566 A 142.96392394118894 142.96392394118894 0 0 1 94.49141044821809,-6.947626021371805 L 93.79447793389647,-4.029701233019413 L 101.41605704009393,-5.807770952680108 L 95.4206538006469,-10.838192405841662 L 94.72372128632529,-7.920267617489269 A 143.96392394118894 143.96392394118894 0 0 0 82.54615782438034,-10.279424986296533"/><text text-anchor="middle" pointer-events="none" font-size="8px" fill="#000000" x="59.317781671853965" y="-8.345480116354338" font-family="sans-serif">twowheeler</text></g><g class="relationship" transform="translate(312.9227549553052 190.02885263808668) rotate(285.17630574888415)"><path class="outline" fill="#A5ABB6" stroke="none" d="M 25 0.5 L 40.47252517105745 0.5 L 40.47252517105745 -0.5 L 25 -0.5 Z M 59.80846267105745 0.5 L 75.2809878421149 0.5 L 75.2809878421149 3.5 L 82.2809878421149 0 L 75.2809878421149 -3.5 L 75.2809878421149 -0.5 L 59.80846267105745 -0.5 Z"/><text text-anchor="middle" pointer-events="none" font-size="8px" fill="#000000" x="50.14049392105745" y="3" font-family="sans-serif">trek</text></g><g class="relationship" transform="translate(341.0078534211603 86.4893065866227) rotate(297.4368051069142)"><path class="outline" fill="#A5ABB6" stroke="none" d="M 25 0.5 L 40.43911081653263 0.5 L 40.43911081653263 -0.5 L 25 -0.5 Z M 59.77504831653263 0.5 L 75.21415913306527 0.5 L 75.21415913306527 3.5 L 82.21415913306527 0 L 75.21415913306527 -3.5 L 75.21415913306527 -0.5 L 59.77504831653263 -0.5 Z"/><text text-anchor="middle" pointer-events="none" font-size="8px" fill="#000000" x="50.10707956653263" y="3" font-family="sans-serif">trek</text></g><g class="relationship" transform="translate(72.85882234947697 -83.59443425601762) rotate(377.0817346452675)"><path class="outline" fill="#A5ABB6" stroke="none" d="M 25 0.5 L 45.46161199795356 0.5 L 45.46161199795356 -0.5 L 25 -0.5 Z M 67.47333074795355 0.5 L 87.93494274590712 0.5 L 87.93494274590712 3.5 L 94.93494274590712 0 L 87.93494274590712 -3.5 L 87.93494274590712 -0.5 L 67.47333074795355 -0.5 Z"/><text text-anchor="middle" pointer-events="none" font-size="8px" fill="#000000" x="56.46747137295356" y="3" font-family="sans-serif">road</text></g><g class="relationship" transform="translate(72.85882234947697 -83.59443425601762) rotate(377.0817346452675)"><path class="outline" fill="#A5ABB6" stroke="none" d="M 21.40063509461097,-12.933012701892217 L 21.90063509461097,-12.06698729810778 A 72.80686895078928 72.80686895078928 0 0 1 26.715193889467663,-14.611516437787344 L 26.28132169944272,-15.512490867348447 A 73.80686895078928 73.80686895078928 0 0 0 21.40063509461097,-12.933012701892217 Z M 86.58586062596738,-17.187655230501917 L 86.20267419009758,-16.263984209323155 A 72.80686895078928 72.80686895078928 0 0 1 91.15106546071813,-13.990654324626096 L 89.79760816895158,-11.313313599323477 L 97.62377003505199,-11.278810764721246 L 92.95567518307352,-17.560441958362922 L 91.60221789130698,-14.883101233060302 A 73.80686895078928 73.80686895078928 0 0 0 86.58586062596738,-17.187655230501917"/><text text-anchor="middle" pointer-events="none" font-size="8px" fill="#000000" x="56.268506328622934" y="-19.292991261645042" font-family="sans-serif">PublicTransport</text></g><g class="relationship" transform="translate(187.5030394071122 -48.36527038989898) rotate(420.41074770706183)"><path class="outline" fill="#A5ABB6" stroke="none" d="M 24.018736134675446,6.953439040707552 L 24.277555179777966,5.987513214418485 A 178.6387072172185 178.6387072172185 0 0 0 58.73074119465096,11.685524731043614 L 58.664787327267064,12.683347404356425 A 179.6387072172185 179.6387072172185 0 0 1 24.018736134675446,6.953439040707552 Z M 78.04387966517244,12.91653950499844 L 78.00195537735189,11.91741871445771 A 178.6387072172185 178.6387072172185 0 0 0 112.58227591210168,7.050099787882542 L 111.87577245995467,4.134477577769516 L 119.50314497772324,5.887528767891698 L 113.52428051496435,10.937596068033242 L 112.81777706281734,8.021973857920218 A 179.6387072172185 179.6387072172185 0 0 1 78.04387966517244,12.91653950499844"/><text text-anchor="middle" pointer-events="none" font-size="8px" fill="#000000" x="68.35720259013841" y="15.561511553155498" font-family="sans-serif">trek</text></g><g class="relationship" transform="translate(258.5084228378776 76.68141922247764) rotate(424.3558866887871)"><path class="outline" fill="#A5ABB6" stroke="none" d="M 24.018736134675446,6.953439040707552 L 24.277555179777966,5.987513214418485 A 142.96392394118894 142.96392394118894 0 0 0 49.70297133553531,10.389427107271672 L 49.621997270165,11.386143315997828 A 143.96392394118894 143.96392394118894 0 0 1 24.018736134675446,6.953439040707552 Z M 69.00882902551511,11.651241214174718 L 68.95513857755033,10.652683586494987 A 142.96392394118894 142.96392394118894 0 0 0 94.49141044821809,6.947626021371805 L 93.79447793389647,4.029701233019413 L 101.41605704009393,5.807770952680108 L 95.4206538006469,10.838192405841662 L 94.72372128632529,7.920267617489269 A 143.96392394118894 143.96392394118894 0 0 1 69.00882902551511,11.651241214174718"/><text text-anchor="middle" pointer-events="none" font-size="8px" fill="#000000" x="59.317781671854036" y="14.345480116354338" font-family="sans-serif">trek</text></g><g class="relationship" transform="translate(312.9227549553052 190.02885263808668) rotate(317.4036987424046)"><path class="outline" fill="#A5ABB6" stroke="none" d="M 21.40063509461097,12.933012701892217 L 21.90063509461097,12.06698729810778 A 61.1016663550956 61.1016663550956 0 0 0 28.22694594091937,15.245831577844903 L 27.83048339290215,16.163882474048208 A 62.1016663550956 62.1016663550956 0 0 1 21.40063509461097,12.933012701892217 Z M 73.54861284419417,17.559674438737886 L 73.20889338398834,16.619147624469697 A 61.1016663550956 61.1016663550956 0 0 0 79.7173435566827,13.832153503828065 L 78.37863005289378,11.147410284305352 L 86.20486331953386,11.155945864907697 L 81.50229489506793,17.41181112985835 L 80.16358139127901,14.727067910335636 A 62.1016663550956 62.1016663550956 0 0 1 73.54861284419417,17.559674438737886"/><text text-anchor="middle" pointer-events="none" font-size="8px" fill="#000000" x="50.57162175781937" y="23.724368843720185" font-family="sans-serif">twowheeler</text></g><g class="relationship" transform="translate(392.85124516995296 116.54036041931089) rotate(268.88250219457996)"><path class="outline" fill="#A5ABB6" stroke="none" d="M 24.018736134675446,6.953439040707552 L 24.277555179777966,5.987513214418485 A 141.96845201287633 141.96845201287633 0 0 0 36.05279536182871,8.612003402984243 L 35.876918970640475,9.596415661655698 A 142.96845201287633 142.96845201287633 0 0 1 24.018736134675446,6.953439040707552 Z M 82.29408029470784,10.233546266242683 L 82.14528952562014,9.244677565638654 A 141.96845201287633 141.96845201287633 0 0 0 93.9881283507601,6.944373529948082 L 93.29149962404827,4.026376200079554 L 100.91289357490531,5.805239389265237 L 94.91696665304255,10.835036636439453 L 94.22033792633071,7.917039306570924 A 142.96845201287633 142.96845201287633 0 0 1 82.29408029470784,10.233546266242683"/><text text-anchor="middle" pointer-events="none" font-size="8px" fill="#000000" x="59.0663300426258" y="14.311551694321821" transform="rotate(180 59.0663300426258 11.311551694321821)" font-family="sans-serif">twowheeler</text></g><g class="relationship" transform="translate(312.9227549553052 190.02885263808668) rotate(317.4036987424046)"><path class="outline" fill="#A5ABB6" stroke="none" d="M 25 0.5 L 39.78300236611157 0.5 L 39.78300236611157 -0.5 L 25 -0.5 Z M 61.79472111611157 0.5 L 76.57772348222313 0.5 L 76.57772348222313 3.5 L 83.57772348222313 0 L 76.57772348222313 -3.5 L 76.57772348222313 -0.5 L 61.79472111611157 -0.5 Z"/><text text-anchor="middle" pointer-events="none" font-size="8px" fill="#000000" x="50.78886174111157" y="3" font-family="sans-serif">road</text></g><g class="relationship" transform="translate(312.9227549553052 190.02885263808668) rotate(317.4036987424046)"><path class="outline" fill="#A5ABB6" stroke="none" d="M 21.40063509461097,-12.933012701892217 L 21.90063509461097,-12.06698729810778 A 61.1016663550956 61.1016663550956 0 0 1 41.06406528723839,-19.18255629950236 L 40.87769716237021,-20.165036285065995 A 62.1016663550956 62.1016663550956 0 0 0 21.40063509461097,-12.933012701892217 Z M 60.28161315453897,-20.757445256090016 L 60.15552724828313,-19.765425929542566 A 61.1016663550956 61.1016663550956 0 0 1 79.7173435566827,-13.832153503828065 L 78.37863005289378,-11.147410284305352 L 86.20486331953386,-11.155945864907697 L 81.50229489506793,-17.41181112985835 L 80.16358139127901,-14.727067910335636 A 62.1016663550956 62.1016663550956 0 0 0 60.28161315453897,-20.757445256090016"/><text text-anchor="middle" pointer-events="none" font-size="8px" fill="#000000" x="50.57162175781935" y="-17.724368843720185" font-family="sans-serif">trek</text></g><g class="relationship" transform="translate(258.5084228378776 76.68141922247764) rotate(376.52539771299166)"><path class="outline" fill="#A5ABB6" stroke="none" d="M 24.018736134675446,-6.953439040707552 L 24.277555179777966,-5.987513214418485 A 171.41062821460582 171.41062821460582 0 0 1 43.454547027195154,-9.967556699764287 L 43.307605477946666,-10.956701876724907 A 172.41062821460582 172.41062821460582 0 0 0 24.018736134675446,-6.953439040707552 Z M 89.76234159647858,-11.529661958433621 L 89.63984073025887,-10.537193551996722 A 171.41062821460582 171.41062821460582 0 0 1 108.9091616399108,-7.031336432546557 L 108.20441062596333,-4.11529013518775 L 115.83072816940594,-5.872925116228929 L 109.84882965850744,-10.919398162358302 L 109.14407864455997,-8.003351864999493 A 172.41062821460582 172.41062821460582 0 0 0 89.76234159647858,-11.529661958433621"/><text text-anchor="middle" pointer-events="none" font-size="8px" fill="#000000" x="66.52175261062393" y="-9.315114632487763" font-family="sans-serif">twowheeler</text></g><g class="relationship" transform="translate(258.5084228378776 76.68141922247764) rotate(376.52539771299166)"><path class="outline" fill="#A5ABB6" stroke="none" d="M 24.018736134675446,6.953439040707552 L 24.277555179777966,5.987513214418485 A 171.41062821460582 171.41062821460582 0 0 0 56.89722487340018,11.425356539887474 L 56.82870715344525,12.423006439427468 A 172.41062821460582 172.41062821460582 0 0 1 24.018736134675446,6.953439040707552 Z M 76.20918847614871,12.66204002545146 L 76.16529734101506,11.663003705662874 A 171.41062821460582 171.41062821460582 0 0 0 108.9091616399108,7.031336432546557 L 108.20441062596333,4.11529013518775 L 115.83072816940594,5.872925116228929 L 109.84882965850744,10.919398162358302 L 109.14407864455997,8.003351864999493 A 172.41062821460582 172.41062821460582 0 0 1 76.20918847614871,12.66204002545146"/><text text-anchor="middle" pointer-events="none" font-size="8px" fill="#000000" x="66.52175261062398" y="15.315114632487763" font-family="sans-serif">trek</text></g><g class="relationship" transform="translate(392.85124516995296 116.54036041931089) rotate(268.88250219457996)"><path class="outline" fill="#A5ABB6" stroke="none" d="M 24.018736134675446,-6.953439040707552 L 24.277555179777966,-5.987513214418485 A 141.96845201287633 141.96845201287633 0 0 1 49.451937910080126,-10.352745357253326 L 49.370442646235844,-11.34941908619922 A 142.96845201287633 142.96845201287633 0 0 0 24.018736134675446,-6.953439040707552 Z M 68.75752520411403,-11.615529793509438 L 68.70341654775827,-10.616994739889691 A 141.96845201287633 141.96845201287633 0 0 1 93.9881283507601,-6.944373529948082 L 93.29149962404827,-4.026376200079554 L 100.91289357490531,-5.805239389265237 L 94.91696665304255,-10.835036636439453 L 94.22033792633071,-7.917039306570924 A 142.96845201287633 142.96845201287633 0 0 0 68.75752520411403,-11.615529793509438"/><text text-anchor="middle" pointer-events="none" font-size="8px" fill="#000000" x="59.06633004262573" y="-8.311551694321821" transform="rotate(180 59.06633004262573 -11.311551694321821)" font-family="sans-serif">trek</text></g><g class="relationship" transform="translate(187.5030394071122 -48.36527038989898) rotate(244.46781673279912)"><path class="outline" fill="#A5ABB6" stroke="none" d="M 25 0.5 L 50.03705128473512 0.5 L 50.03705128473512 -0.5 L 25 -0.5 Z M 69.37298878473513 0.5 L 94.41004006947024 0.5 L 94.41004006947024 3.5 L 101.41004006947024 0 L 94.41004006947024 -3.5 L 94.41004006947024 -0.5 L 69.37298878473513 -0.5 Z"/><text text-anchor="middle" pointer-events="none" font-size="8px" fill="#000000" x="59.70502003473512" y="3" transform="rotate(180 59.70502003473512 0)" font-family="sans-serif">trek</text></g><g class="relationship" transform="translate(133.01803490964903 -162.43052590303273) rotate(340.7683881228694)"><path class="outline" fill="#A5ABB6" stroke="none" d="M 21.40063509461097,-12.933012701892217 L 21.90063509461097,-12.06698729810778 A 62.00707675938054 62.00707675938054 0 0 1 28.645229652935402,-15.431994359497438 L 28.25400102083099,-16.352287876491722 A 63.00707675938054 63.00707675938054 0 0 0 21.40063509461097,-12.933012701892217 Z M 73.99859249846129,-17.73829680502844 L 73.66379805775556,-16.79600561729901 A 62.00707675938054 62.00707675938054 0 0 1 80.59974534248448,-13.845503364657386 L 79.2597899705038,-11.161379745838733 L 87.08602634839144,-11.166294766505597 L 82.38635250512537,-17.42433485641559 L 81.0463971331447,-14.740211237596938 A 63.00707675938054 63.00707675938054 0 0 0 73.99859249846129,-17.73829680502844"/><text text-anchor="middle" pointer-events="none" font-size="8px" fill="#000000" x="51.01114908583831" y="-17.845688708696642" font-family="sans-serif">twowheeler</text></g><g class="relationship" transform="translate(236.36366903196608 -198.4832293251448) rotate(419.0069341917251)"><path class="outline" fill="#A5ABB6" stroke="none" d="M 21.40063509461097,12.933012701892217 L 21.90063509461097,12.06698729810778 A 71.66632087375156 71.66632087375156 0 0 0 33.163157805860244,17.324828176760917 L 32.82031004381438,18.264219156098136 A 72.66632087375156 72.66632087375156 0 0 1 21.40063509461097,12.933012701892217 Z M 78.78506357662502,19.552390215697173 L 78.49536584881915,18.595272027329557 A 71.66632087375156 71.66632087375156 0 0 0 90.03468373842166,13.976457117708122 L 88.68254701032717,11.298449225909087 L 96.50872494063516,11.267806067454137 L 91.83753270921432,17.5471343067735 L 90.48539598111982,14.869126414974467 A 72.66632087375156 72.66632087375156 0 0 1 78.78506357662502,19.552390215697173"/><text text-anchor="middle" pointer-events="none" font-size="8px" fill="#000000" x="55.71211427691979" y="25.14013025669439" font-family="sans-serif">twowheeler</text></g><g class="relationship" transform="translate(297.5509766572342 -96.62252686680901) rotate(403.4474466924522)"><path class="outline" fill="#A5ABB6" stroke="none" d="M 25 0.5 L 50.78330406919294 0.5 L 50.78330406919294 -0.5 L 25 -0.5 Z M 70.11924156919294 0.5 L 95.90254563838587 0.5 L 95.90254563838587 3.5 L 102.90254563838587 0 L 95.90254563838587 -3.5 L 95.90254563838587 -0.5 L 70.11924156919294 -0.5 Z"/><text text-anchor="middle" pointer-events="none" font-size="8px" fill="#000000" x="60.45127281919294" y="3" font-family="sans-serif">trek</text></g><g class="relationship" transform="translate(72.85882234947697 -83.59443425601762) rotate(307.34697303024734)"><path class="outline" fill="#A5ABB6" stroke="none" d="M 24.018736134675446,-6.953439040707552 L 24.277555179777966,-5.987513214418485 A 90.0035124996135 90.0035124996135 0 0 1 35.127916403009856,-8.189859340426693 L 34.989652222066425,-9.180254724234615 A 91.0035124996135 91.0035124996135 0 0 0 24.018736134675446,-6.953439040707552 Z M 57.065237511161875,-9.55781849585982 L 56.960922206075146,-8.563274219759123 A 90.0035124996135 90.0035124996135 0 0 1 67.88024980743495,-6.733260048355057 L 67.20334051014319,-3.810625311813389 L 74.8125490755808,-5.640910810764585 L 68.78279553715728,-10.630106363743948 L 68.10588623986553,-7.70747162720228 A 91.0035124996135 91.0035124996135 0 0 0 57.065237511161875,-9.55781849585982"/><text text-anchor="middle" pointer-events="none" font-size="8px" fill="#000000" x="46.02450246547283" y="-6.541074374874157" font-family="sans-serif">road</text></g><g class="relationship" transform="translate(72.85882234947697 -83.59443425601762) rotate(307.34697303024734)"><path class="outline" fill="#A5ABB6" stroke="none" d="M 24.018736134675446,6.953439040707552 L 24.277555179777966,5.987513214418485 A 90.0035124996135 90.0035124996135 0 0 0 36.44694842164017,8.364073443181567 L 36.32333958004959,9.356404463698723 A 91.0035124996135 91.0035124996135 0 0 1 24.018736134675446,6.953439040707552 Z M 55.72630649024728,9.688257833446144 L 55.6367041449589,8.69228021335681 A 90.0035124996135 90.0035124996135 0 0 0 67.88024980743495,6.733260048355057 L 67.20334051014319,3.810625311813389 L 74.8125490755808,5.640910810764585 L 68.78279553715728,10.630106363743948 L 68.10588623986553,7.70747162720228 A 91.0035124996135 91.0035124996135 0 0 1 55.72630649024728,9.688257833446144"/><text text-anchor="middle" pointer-events="none" font-size="8px" fill="#000000" x="46.024502465472835" y="12.541074374874157" font-family="sans-serif">trek</text></g><g class="relationship" transform="translate(133.01803490964903 -162.43052590303273) rotate(340.7683881228694)"><path class="outline" fill="#A5ABB6" stroke="none" d="M 25 0.5 L 40.22100221094012 0.5 L 40.22100221094012 -0.5 L 25 -0.5 Z M 62.23272096094012 0.5 L 77.45372317188024 0.5 L 77.45372317188024 3.5 L 84.45372317188024 0 L 77.45372317188024 -3.5 L 77.45372317188024 -0.5 L 62.23272096094012 -0.5 Z"/><text text-anchor="middle" pointer-events="none" font-size="8px" fill="#000000" x="51.22686158594012" y="3" font-family="sans-serif">road</text></g><g class="relationship" transform="translate(133.01803490964903 -162.43052590303273) rotate(340.7683881228694)"><path class="outline" fill="#A5ABB6" stroke="none" d="M 21.40063509461097,12.933012701892217 L 21.90063509461097,12.06698729810778 A 62.00707675938054 62.00707675938054 0 0 0 41.5006502502481,19.316748138665353 L 41.316743447669666,20.29969182370808 A 63.00707675938054 63.00707675938054 0 0 1 21.40063509461097,12.933012701892217 Z M 60.72082753537224,20.88761343207537 L 60.59676759697957,19.89533870616222 A 62.00707675938054 62.00707675938054 0 0 0 80.59974534248448,13.845503364657386 L 79.2597899705038,11.161379745838733 L 87.08602634839144,11.166294766505597 L 82.38635250512537,17.42433485641559 L 81.0463971331447,14.740211237596938 A 63.00707675938054 63.00707675938054 0 0 1 60.72082753537224,20.88761343207537"/><text text-anchor="middle" pointer-events="none" font-size="8px" fill="#000000" x="51.011149085838326" y="23.845688708696642" font-family="sans-serif">trek</text></g><g class="relationship" transform="translate(236.36366903196608 -198.4832293251448) rotate(419.0069341917251)"><path class="outline" fill="#A5ABB6" stroke="none" d="M 25 0.5 L 44.90686931114689 0.5 L 44.90686931114689 -0.5 L 25 -0.5 Z M 66.91858806114689 0.5 L 86.82545737229378 0.5 L 86.82545737229378 3.5 L 93.82545737229378 0 L 86.82545737229378 -3.5 L 86.82545737229378 -0.5 L 66.91858806114689 -0.5 Z"/><text text-anchor="middle" pointer-events="none" font-size="8px" fill="#000000" x="55.91272868614689" y="3" font-family="sans-serif">road</text></g><g class="relationship" transform="translate(134.30366266890476 294.49165195671304) rotate(199.01354674447578)"><path class="outline" fill="#A5ABB6" stroke="none" d="M 21.40063509461097,12.933012701892217 L 21.90063509461097,12.06698729810778 A 70.72718604147354 70.72718604147354 0 0 0 44.41123178486638,20.364964561164314 L 44.229505392939174,21.3483136947263 A 71.72718604147354 71.72718604147354 0 0 1 21.40063509461097,12.933012701892217 Z M 66.298848132673,21.971366798193245 L 66.17289003343707,20.979331235707264 A 70.72718604147354 70.72718604147354 0 0 0 89.11578973759458,13.964579410124944 L 87.76475783296446,11.286013974547249 L 95.59094773804755,11.258599205250954 L 90.91716561043474,17.535999990895203 L 89.56613370580462,14.857434555317507 A 71.72718604147354 71.72718604147354 0 0 1 66.298848132673,21.971366798193245"/><text text-anchor="middle" pointer-events="none" font-size="8px" fill="#000000" x="55.25417076510046" y="25.014265562038275" transform="rotate(180 55.25417076510046 22.014265562038275)" font-family="sans-serif">road</text></g><g class="relationship" transform="translate(22.824447307993843 256.0767947788351) rotate(249.53528684468256)"><path class="outline" fill="#A5ABB6" stroke="none" d="M 24.018736134675446,-6.953439040707552 L 24.277555179777966,-5.987513214418485 A 160.26511218470324 160.26511218470324 0 0 1 54.074070673783055,-11.022003000473603 L 54.001171789892325,-12.01934233727303 A 161.26511218470324 161.26511218470324 0 0 0 24.018736134675446,-6.953439040707552 Z M 73.38396319655499,-12.267966913455098 L 73.3366699871648,-11.269085863306714 A 160.26511218470324 160.26511218470324 0 0 1 103.25251635749156,-7.000531197218215 L 102.55064249297372,-4.083791051386433 L 110.17522234185202,-5.848948870981912 L 104.18834817684866,-10.889518058327258 L 103.48647431233083,-7.972777912495476 A 161.26511218470324 161.26511218470324 0 0 0 73.38396319655499,-12.267966913455098"/><text text-anchor="middle" pointer-events="none" font-size="8px" fill="#000000" x="63.69524147931037" y="-8.935190460883177" transform="rotate(180 63.69524147931037 -11.935190460883177)" font-family="sans-serif">trek</text></g><g class="relationship" transform="translate(-24.19434100805759 130.08283515452655) rotate(233.51335203326926)"><path class="outline" fill="#A5ABB6" stroke="none" d="M 24.018736134675446,-6.953439040707552 L 24.277555179777966,-5.987513214418485 A 154.7388016213143 154.7388016213143 0 0 1 39.255482403173545,-9.21551439134933 L 39.09345826061946,-10.202301185560543 A 155.7388016213143 155.7388016213143 0 0 0 24.018736134675446,-6.953439040707552 Z M 85.53017321866349,-10.80998493542279 L 85.39402687014783,-9.819296199347804 A 154.7388016213143 154.7388016213143 0 0 1 100.45129558622722,-6.984343938836578 L 99.75093359908483,-4.067240394742548 L 107.3745975203037,-5.836349892853322 L 101.38511156908375,-10.873815330961952 L 100.68474958194136,-7.956711786867921 A 155.7388016213143 155.7388016213143 0 0 0 85.53017321866349,-10.80998493542279"/><text text-anchor="middle" pointer-events="none" font-size="8px" fill="#000000" x="62.295579905068074" y="-8.746819353648561" transform="rotate(180 62.295579905068074 -11.746819353648561)" font-family="sans-serif">twowheeler</text></g><g class="relationship" transform="translate(-102.49819192545434 24.209663575112806) rotate(467.0554965770367)"><path class="outline" fill="#A5ABB6" stroke="none" d="M 21.40063509461097,12.933012701892217 L 21.90063509461097,12.06698729810778 A 51.29694328458324 51.29694328458324 0 0 0 23.779791967108594,13.100160622705872 L 23.316424888140016,13.986327057484424 A 52.29694328458324 52.29694328458324 0 0 1 21.40063509461097,12.933012701892217 Z M 68.64746575648829,15.494694484192301 L 68.2440318711697,14.579685686323813 A 51.29694328458324 51.29694328458324 0 0 0 70.1877127668146,13.673715352360823 L 68.86373878822965,10.981672837089203 L 76.68980763221253,11.033116488207884 L 71.95301140492785,17.263105372722983 L 70.6290374263429,14.571062857451363 A 52.29694328458324 52.29694328458324 0 0 1 68.64746575648829,15.494694484192301"/><text text-anchor="middle" pointer-events="none" font-size="8px" fill="#000000" x="45.82654302249474" y="22.41082377244212" transform="rotate(180 45.82654302249474 19.41082377244212)" font-family="sans-serif">twowheeler</text></g><g class="relationship" transform="translate(-131.57089920591332 118.97381821092495) rotate(483.96452027544274)"><path class="outline" fill="#A5ABB6" stroke="none" d="M 24.018736134675446,6.953439040707552 L 24.277555179777966,5.987513214418485 A 104.13265091623924 104.13265091623924 0 0 0 26.671419698702703,6.598604507811729 L 26.43558925993894,7.570398726848083 A 105.13265091623924 105.13265091623924 0 0 1 24.018736134675446,6.953439040707552 Z M 72.73384545041291,8.312857071770736 L 72.52929646578175,7.334000742738553 A 104.13265091623924 104.13265091623924 0 0 0 74.94152445217829,6.799981973899297 L 74.25838263864647,3.878797751258681 L 81.87147794059501,5.692848446098489 L 75.85238020355403,10.694894270753451 L 75.16923839002222,7.773710048112835 A 105.13265091623924 105.13265091623924 0 0 1 72.73384545041291,8.312857071770736"/><text text-anchor="middle" pointer-events="none" font-size="8px" fill="#000000" x="49.55135088762958" y="13.02229582256227" transform="rotate(180 49.55135088762958 10.02229582256227)" font-family="sans-serif">twowheeler</text></g><g class="relationship" transform="translate(134.30366266890476 294.49165195671304) rotate(199.01354674447578)"><path class="outline" fill="#A5ABB6" stroke="none" d="M 25 0.5 L 25.26085068393082 0.5 L 25.26085068393082 -0.5 L 25 -0.5 Z M 85.65147568393081 0.5 L 85.91232636786164 0.5 L 85.91232636786164 3.5 L 92.91232636786164 0 L 85.91232636786164 -3.5 L 85.91232636786164 -0.5 L 85.65147568393081 -0.5 Z"/><text text-anchor="middle" pointer-events="none" font-size="8px" fill="#000000" x="55.45616318393082" y="3" transform="rotate(180 55.45616318393082 0)" font-family="sans-serif">PublicTransp…</text></g><g class="relationship" transform="translate(134.30366266890476 294.49165195671304) rotate(199.01354674447578)"><path class="outline" fill="#A5ABB6" stroke="none" d="M 21.40063509461097,-12.933012701892217 L 21.90063509461097,-12.06698729810778 A 70.72718604147354 70.72718604147354 0 0 1 45.719800533075066,-20.594104909600432 L 45.556575778516006,-21.58069382069722 A 71.72718604147354 71.72718604147354 0 0 0 21.40063509461097,-12.933012701892217 Z M 64.96078099459069,-22.128505797825937 L 64.85347784631449,-21.134279448160015 A 70.72718604147354 70.72718604147354 0 0 1 89.11578973759458,-13.964579410124944 L 87.76475783296446,-11.286013974547249 L 95.59094773804755,-11.258599205250954 L 90.91716561043474,-17.535999990895203 L 89.56613370580462,-14.857434555317507 A 71.72718604147354 71.72718604147354 0 0 0 64.96078099459069,-22.128505797825937"/><text text-anchor="middle" pointer-events="none" font-size="8px" fill="#000000" x="55.254170765100454" y="-19.014265562038275" transform="rotate(180 55.254170765100454 -22.014265562038275)" font-family="sans-serif">trek</text></g><g class="relationship" transform="translate(22.824447307993843 256.0767947788351) rotate(249.53528684468256)"><path class="outline" fill="#A5ABB6" stroke="none" d="M 24.018736134675446,6.953439040707552 L 24.277555179777966,5.987513214418485 A 160.26511218470324 160.26511218470324 0 0 0 40.645340469161866,9.46880311127282 L 40.48865085863348,10.456451007009179 A 161.26511218470324 161.26511218470324 0 0 1 24.018736134675446,6.953439040707552 Z M 86.93212638497283,11.052185087663304 L 86.80082143240475,10.060843063218101 A 160.26511218470324 160.26511218470324 0 0 0 103.25251635749156,7.000531197218215 L 102.55064249297372,4.083791051386433 L 110.17522234185202,5.848948870981912 L 104.18834817684866,10.889518058327258 L 103.48647431233083,7.972777912495476 A 161.26511218470324 161.26511218470324 0 0 1 86.93212638497283,11.052185087663304"/><text text-anchor="middle" pointer-events="none" font-size="8px" fill="#000000" x="63.69524147931045" y="14.935190460883177" transform="rotate(180 63.69524147931045 11.935190460883177)" font-family="sans-serif">twowheeler</text></g><g class="relationship" transform="translate(-24.19434100805759 130.08283515452655) rotate(185.9067203395354)"><path class="outline" fill="#A5ABB6" stroke="none" d="M 24.018736134675446,-6.953439040707552 L 24.277555179777966,-5.987513214418485 A 107.60107138487902 107.60107138487902 0 0 1 40.82509790009637,-9.058760937089474 L 40.720064895479716,-10.053229673622297 A 108.60107138487902 108.60107138487902 0 0 0 24.018736134675446,-6.953439040707552 Z M 60.11713241451804,-10.359584436641384 L 60.043556983032836,-9.36229478168562 A 107.60107138487902 107.60107138487902 0 0 1 76.67983589544654,-6.815148024399497 L 75.9952774467671,-3.8942954553125873 L 83.60925163142923,-5.7046537389953 L 77.59258049368579,-10.709618116515378 L 76.90802204500635,-7.788765547428468 A 108.60107138487902 108.60107138487902 0 0 0 60.11713241451804,-10.359584436641384"/><text text-anchor="middle" pointer-events="none" font-size="8px" fill="#000000" x="50.41964036226087" y="-7.140450626392493" transform="rotate(180 50.41964036226087 -10.140450626392493)" font-family="sans-serif">trek</text></g><g class="relationship" transform="translate(134.30366266890476 294.49165195671304) rotate(491.22655596962977)"><path class="outline" fill="#A5ABB6" stroke="none" d="M 24.018736134675446,-6.953439040707552 L 24.277555179777966,-5.987513214418485 A 92.53563404715896 92.53563404715896 0 0 1 35.75500471943877,-8.296172345140292 L 35.62021842839737,-9.287047037393194 A 93.53563404715896 93.53563404715896 0 0 0 24.018736134675446,-6.953439040707552 Z M 57.695502039291455,-9.66016667211747 L 57.59427898655951,-8.665302915819339 A 92.53563404715896 92.53563404715896 0 0 1 69.14319287808517,-6.745838708429479 L 68.46510858747754,-3.8234763601175623 L 76.07505240591425,-5.650702421730312 L 70.04730526556202,-10.642321839512034 L 69.36922097495439,-7.719959491200117 A 93.53563404715896 93.53563404715896 0 0 0 57.695502039291455,-9.66016667211747"/><text text-anchor="middle" pointer-events="none" font-size="8px" fill="#000000" x="46.65526245620938" y="-6.627302004285156" transform="rotate(180 46.65526245620938 -9.627302004285156)" font-family="sans-serif">road</text></g><g class="relationship" transform="translate(68.11773436989691 370.02456223991726) rotate(525.3991009578024)"><path class="outline" fill="#A5ABB6" stroke="none" d="M 21.40063509461097,-12.933012701892217 L 21.90063509461097,-12.06698729810778 A 63.30537249997183 63.30537249997183 0 0 1 29.24679993008437,-15.696012013808328 L 28.862843238027573,-16.619363116382438 A 64.30537249997184 64.30537249997184 0 0 0 21.40063509461097,-12.933012701892217 Z M 74.64332399950706,-17.991529137863658 L 74.31535758185012,-17.046839755638317 A 63.30537249997183 63.30537249997183 0 0 1 81.86568349863828,-13.864303545728259 L 80.52397926236414,-11.181053698553374 L 88.35021718142536,-11.180868635617761 L 83.65462248033712,-17.441970008628104 L 82.31291824406298,-14.758720161453219 A 64.30537249997184 64.30537249997184 0 0 0 74.64332399950706,-17.991529137863658"/><text text-anchor="middle" pointer-events="none" font-size="8px" fill="#000000" x="51.6417585444281" y="-18.019658069607317" transform="rotate(180 51.6417585444281 -21.019658069607317)" font-family="sans-serif">twowheeler</text></g><g class="relationship" transform="translate(-39.01752213734603 397.93300143282335) rotate(242.20462980076525)"><path class="outline" fill="#A5ABB6" stroke="none" d="M 21.40063509461097,12.933012701892217 L 21.90063509461097,12.06698729810778 A 71.24621057219704 71.24621057219704 0 0 0 44.66275842835817,20.441758437547662 L 44.48224381783978,21.42533074062935 A 72.24621057219704 72.24621057219704 0 0 1 21.40063509461097,12.933012701892217 Z M 66.55181273507769,22.04586451305454 L 66.42685016219166,21.053703056749313 A 71.24621057219704 71.24621057219704 0 0 0 89.62358925329603,13.971164963809441 L 88.27194478204132,11.292908586364117 L 96.09812821254424,11.263703927122648 L 91.42578188163566,17.542173467069873 L 90.07413741038094,14.863917089624548 A 72.24621057219704 72.24621057219704 0 0 1 66.55181273507769,22.04586451305454"/><text text-anchor="middle" pointer-events="none" font-size="8px" fill="#000000" x="55.5072370805387" y="25.083826011406558" transform="rotate(180 55.5072370805387 22.083826011406558)" font-family="sans-serif">road</text></g><g class="relationship" transform="translate(-94.23713243204705 293.17917443290827) rotate(221.693222270685)"><path class="outline" fill="#A5ABB6" stroke="none" d="M 25 0.5 L 51.56454695440401 0.5 L 51.56454695440401 -0.5 L 25 -0.5 Z M 70.90048445440401 0.5 L 97.46503140880802 0.5 L 97.46503140880802 3.5 L 104.46503140880802 0 L 97.46503140880802 -3.5 L 97.46503140880802 -0.5 L 70.90048445440401 -0.5 Z"/><text text-anchor="middle" pointer-events="none" font-size="8px" fill="#000000" x="61.23251570440401" y="3" transform="rotate(180 61.23251570440401 0)" font-family="sans-serif">trek</text></g><g class="relationship" transform="translate(134.30366266890476 294.49165195671304) rotate(491.22655596962977)"><path class="outline" fill="#A5ABB6" stroke="none" d="M 24.018736134675446,6.953439040707552 L 24.277555179777966,5.987513214418485 A 92.53563404715896 92.53563404715896 0 0 0 37.07480625753461,8.466045802572623 L 36.95428259679434,9.458756257439376 A 93.53563404715896 93.53563404715896 0 0 1 24.018736134675446,6.953439040707552 Z M 56.35639704040219,9.786693600473313 L 56.269490510058006,8.7904771305314 A 92.53563404715896 92.53563404715896 0 0 0 69.14319287808517,6.745838708429479 L 68.46510858747754,3.8234763601175623 L 76.07505240591425,5.650702421730312 L 70.04730526556202,10.642321839512034 L 69.36922097495439,7.719959491200117 A 93.53563404715896 93.53563404715896 0 0 1 56.35639704040219,9.786693600473313"/><text text-anchor="middle" pointer-events="none" font-size="8px" fill="#000000" x="46.655262456209414" y="12.627302004285156" transform="rotate(180 46.655262456209414 9.627302004285156)" font-family="sans-serif">trek</text></g><g class="relationship" transform="translate(22.824447307993843 256.0767947788351) rotate(428.32259187275065)"><path class="outline" fill="#A5ABB6" stroke="none" d="M 25 0.5 L 48.14185012560264 0.5 L 48.14185012560264 -0.5 L 25 -0.5 Z M 67.47778762560264 0.5 L 90.61963775120527 0.5 L 90.61963775120527 3.5 L 97.61963775120527 0 L 90.61963775120527 -3.5 L 90.61963775120527 -0.5 L 67.47778762560264 -0.5 Z"/><text text-anchor="middle" pointer-events="none" font-size="8px" fill="#000000" x="57.80981887560264" y="3" font-family="sans-serif">trek</text></g><g class="relationship" transform="translate(68.11773436989691 370.02456223991726) rotate(525.3991009578024)"><path class="outline" fill="#A5ABB6" stroke="none" d="M 25 0.5 L 40.84945691227469 0.5 L 40.84945691227469 -0.5 L 25 -0.5 Z M 62.86117566227469 0.5 L 78.71063257454938 0.5 L 78.71063257454938 3.5 L 85.71063257454938 0 L 78.71063257454938 -3.5 L 78.71063257454938 -0.5 L 62.86117566227469 -0.5 Z"/><text text-anchor="middle" pointer-events="none" font-size="8px" fill="#000000" x="51.85531628727469" y="3" transform="rotate(180 51.85531628727469 0)" font-family="sans-serif">road</text></g><g class="relationship" transform="translate(68.11773436989691 370.02456223991726) rotate(525.3991009578024)"><path class="outline" fill="#A5ABB6" stroke="none" d="M 21.40063509461097,12.933012701892217 L 21.90063509461097,12.06698729810778 A 63.30537249997183 63.30537249997183 0 0 0 42.12721320178379,19.508601170703116 L 41.94672128314263,20.492177638144895 A 64.30537249997184 64.30537249997184 0 0 1 21.40063509461097,12.933012701892217 Z M 61.35098376133595,21.073776371963426 L 61.22972387100963,20.08115557881125 A 63.30537249997183 63.30537249997183 0 0 0 81.86568349863828,13.864303545728259 L 80.52397926236414,11.181053698553374 L 88.35021718142536,11.180868635617761 L 83.65462248033712,17.441970008628104 L 82.31291824406298,14.758720161453219 A 64.30537249997184 64.30537249997184 0 0 1 61.35098376133595,21.073776371963426"/><text text-anchor="middle" pointer-events="none" font-size="8px" fill="#000000" x="51.64175854442809" y="24.019658069607317" transform="rotate(180 51.64175854442809 21.019658069607317)" font-family="sans-serif">trek</text></g><g class="relationship" transform="translate(-39.01752213734603 397.93300143282335) rotate(242.20462980076525)"><path class="outline" fill="#A5ABB6" stroke="none" d="M 25 0.5 L 32.476043803960955 0.5 L 32.476043803960955 -0.5 L 25 -0.5 Z M 78.94088755396095 0.5 L 86.41693135792191 0.5 L 86.41693135792191 3.5 L 93.41693135792191 0 L 86.41693135792191 -3.5 L 86.41693135792191 -0.5 L 78.94088755396095 -0.5 Z"/><text text-anchor="middle" pointer-events="none" font-size="8px" fill="#000000" x="55.708465678960955" y="3" transform="rotate(180 55.708465678960955 0)" font-family="sans-serif">twowheeler</text></g><g class="relationship" transform="translate(-39.01752213734603 397.93300143282335) rotate(242.20462980076525)"><path class="outline" fill="#A5ABB6" stroke="none" d="M 21.40063509461097,-12.933012701892217 L 21.90063509461097,-12.06698729810778 A 71.24621057219704 71.24621057219704 0 0 1 45.97166027225332,-20.66938685929196 L 45.80951719101884,-21.656154117163737 A 72.24621057219704 72.24621057219704 0 0 0 21.40063509461097,-12.933012701892217 Z M 65.21366637721691,-22.201743835765257 L 65.10722583264575,-21.207424767019518 A 71.24621057219704 71.24621057219704 0 0 1 89.62358925329603,-13.971164963809441 L 88.27194478204132,-11.292908586364117 L 96.09812821254424,-11.263703927122648 L 91.42578188163566,-17.542173467069873 L 90.07413741038094,-14.863917089624548 A 72.24621057219704 72.24621057219704 0 0 0 65.21366637721691,-22.201743835765257"/><text text-anchor="middle" pointer-events="none" font-size="8px" fill="#000000" x="55.50723708053871" y="-19.083826011406558" transform="rotate(180 55.50723708053871 -22.083826011406558)" font-family="sans-serif">trek</text></g><g class="relationship" transform="translate(22.824447307993843 256.0767947788351) rotate(522.4141162605883)"><path class="outline" fill="#A5ABB6" stroke="none" d="M 25 0.5 L 48.232357037468205 0.5 L 48.232357037468205 -0.5 L 25 -0.5 Z M 67.5682945374682 0.5 L 90.80065157493641 0.5 L 90.80065157493641 3.5 L 97.80065157493641 0 L 90.80065157493641 -3.5 L 90.80065157493641 -0.5 L 67.5682945374682 -0.5 Z"/><text text-anchor="middle" pointer-events="none" font-size="8px" fill="#000000" x="57.900325787468205" y="3" transform="rotate(180 57.900325787468205 0)" font-family="sans-serif">trek</text></g><g class="relationship" transform="translate(236.36366903196608 -198.4832293251448) rotate(419.0069341917251)"><path class="outline" fill="#A5ABB6" stroke="none" d="M 21.40063509461097,-12.933012701892217 L 21.90063509461097,-12.06698729810778 A 71.66632087375156 71.66632087375156 0 0 1 46.17557578302413,-20.7302679900163 L 46.01429751999143,-21.717176963464794 A 72.66632087375156 72.66632087375156 0 0 0 21.40063509461097,-12.933012701892217 Z M 65.41839752716733,-22.260980598764775 L 65.3126456203241,-21.26658805343922 A 71.66632087375156 71.66632087375156 0 0 1 90.03468373842166,-13.976457117708122 L 88.68254701032717,-11.298449225909087 L 96.50872494063516,-11.267806067454137 L 91.83753270921432,-17.5471343067735 L 90.48539598111982,-14.869126414974467 A 72.66632087375156 72.66632087375156 0 0 0 65.41839752716733,-22.260980598764775"/><text text-anchor="middle" pointer-events="none" font-size="8px" fill="#000000" x="55.7121142769198" y="-19.14013025669439" font-family="sans-serif">trek</text></g><g class="relationship" transform="translate(187.5030394071122 -48.36527038989898) rotate(336.3220093209361)"><path class="outline" fill="#A5ABB6" stroke="none" d="M 25 0.5 L 46.91387396409512 0.5 L 46.91387396409512 -0.5 L 25 -0.5 Z M 66.24981146409512 0.5 L 88.16368542819023 0.5 L 88.16368542819023 3.5 L 95.16368542819023 0 L 88.16368542819023 -3.5 L 88.16368542819023 -0.5 L 66.24981146409512 -0.5 Z"/><text text-anchor="middle" pointer-events="none" font-size="8px" fill="#000000" x="56.58184271409512" y="3" font-family="sans-serif">trek</text></g><g class="relationship" transform="translate(-24.19434100805759 130.08283515452655) rotate(233.51335203326926)"><path class="outline" fill="#A5ABB6" stroke="none" d="M 24.018736134675446,6.953439040707552 L 24.277555179777966,5.987513214418485 A 154.7388016213143 154.7388016213143 0 0 0 52.67627090390724,10.820885438202282 L 52.600978649929985,11.818046947934278 A 155.7388016213143 155.7388016213143 0 0 1 24.018736134675446,6.953439040707552 Z M 71.98499742592739,12.071711601599844 L 71.93582475161315,11.072921309245743 A 154.7388016213143 154.7388016213143 0 0 0 100.45129558622722,6.984343938836578 L 99.75093359908483,4.067240394742548 L 107.3745975203037,5.836349892853322 L 101.38511156908375,10.873815330961952 L 100.68474958194136,7.956711786867921 A 155.7388016213143 155.7388016213143 0 0 1 71.98499742592739,12.071711601599844"/><text text-anchor="middle" pointer-events="none" font-size="8px" fill="#000000" x="62.29557990506811" y="14.746819353648561" transform="rotate(180 62.29557990506811 11.746819353648561)" font-family="sans-serif">trek</text></g><g class="relationship" transform="translate(-102.49819192545434 24.209663575112806) rotate(513.0515348452001)"><path class="outline" fill="#A5ABB6" stroke="none" d="M 25 0.5 L 47.71848996408599 0.5 L 47.71848996408599 -0.5 L 25 -0.5 Z M 67.05442746408599 0.5 L 89.77291742817198 0.5 L 89.77291742817198 3.5 L 96.77291742817198 0 L 89.77291742817198 -3.5 L 89.77291742817198 -0.5 L 67.05442746408599 -0.5 Z"/><text text-anchor="middle" pointer-events="none" font-size="8px" fill="#000000" x="57.38645871408599" y="3" transform="rotate(180 57.38645871408599 0)" font-family="sans-serif">trek</text></g><g class="relationship" transform="translate(-211.0483370450831 79.39579782526597) rotate(441.03659356102366)"><path class="outline" fill="#A5ABB6" stroke="none" d="M 25 0.5 L 51.45659472981717 0.5 L 51.45659472981717 -0.5 L 25 -0.5 Z M 70.79253222981717 0.5 L 97.24912695963434 0.5 L 97.24912695963434 3.5 L 104.24912695963434 0 L 97.24912695963434 -3.5 L 97.24912695963434 -0.5 L 70.79253222981717 -0.5 Z"/><text text-anchor="middle" pointer-events="none" font-size="8px" fill="#000000" x="61.12456347981717" y="3" font-family="sans-serif">trek</text></g><g class="relationship" transform="translate(-102.49819192545434 24.209663575112806) rotate(467.0554965770367)"><path class="outline" fill="#A5ABB6" stroke="none" d="M 25 0.5 L 36.393778879738015 0.5 L 36.393778879738015 -0.5 L 25 -0.5 Z M 55.729716379738015 0.5 L 67.12349525947603 0.5 L 67.12349525947603 3.5 L 74.12349525947603 0 L 67.12349525947603 -3.5 L 67.12349525947603 -0.5 L 55.729716379738015 -0.5 Z"/><text text-anchor="middle" pointer-events="none" font-size="8px" fill="#000000" x="46.061747629738015" y="3" transform="rotate(180 46.061747629738015 0)" font-family="sans-serif">trek</text></g><g class="relationship" transform="translate(-131.57089920591332 118.97381821092495) rotate(483.96452027544274)"><path class="outline" fill="#A5ABB6" stroke="none" d="M 24.018736134675446,-6.953439040707552 L 24.277555179777966,-5.987513214418485 A 104.13265091623924 104.13265091623924 0 0 1 39.9596419484593,-8.924152226898855 L 39.8514201140366,-9.91827899675981 A 105.13265091623924 105.13265091623924 0 0 0 24.018736134675446,-6.953439040707552 Z M 59.24962920096162,-10.229356851482677 L 59.17333928838785,-9.232271173499342 A 104.13265091623924 104.13265091623924 0 0 1 74.94152445217829,-6.799981973899297 L 74.25838263864647,-3.878797751258681 L 81.87147794059501,-5.692848446098489 L 75.85238020355403,-10.694894270753451 L 75.16923839002222,-7.773710048112835 A 105.13265091623924 105.13265091623924 0 0 0 59.24962920096162,-10.229356851482677"/><text text-anchor="middle" pointer-events="none" font-size="8px" fill="#000000" x="49.55135088762953" y="-7.0222958225622705" transform="rotate(180 49.55135088762953 -10.02229582256227)" font-family="sans-serif">trek</text></g><g class="relationship" transform="translate(-102.49819192545434 24.209663575112806) rotate(467.0554965770367)"><path class="outline" fill="#A5ABB6" stroke="none" d="M 21.40063509461097,-12.933012701892217 L 21.90063509461097,-12.06698729810778 A 51.29694328458324 51.29694328458324 0 0 1 35.069732332792576,-17.398351085748246 L 34.82645517815049,-18.368307902327857 A 52.29694328458324 52.29694328458324 0 0 0 21.40063509461097,-12.933012701892217 Z M 56.87160103463713,-19.101848965801793 L 56.69334024706099,-18.117865687685374 A 51.29694328458324 51.29694328458324 0 0 1 70.1877127668146,-13.673715352360823 L 68.86373878822965,-10.981672837089203 L 76.68980763221253,-11.033116488207884 L 71.95301140492785,-17.263105372722983 L 70.6290374263429,-14.571062857451363 A 52.29694328458324 52.29694328458324 0 0 0 56.87160103463713,-19.101848965801793"/><text text-anchor="middle" pointer-events="none" font-size="8px" fill="#000000" x="45.82654302249472" y="-16.41082377244212" transform="rotate(180 45.82654302249472 -19.41082377244212)" font-family="sans-serif">road</text></g><g class="relationship" transform="translate(-24.19434100805759 130.08283515452655) rotate(185.9067203395354)"><path class="outline" fill="#A5ABB6" stroke="none" d="M 24.018736134675446,6.953439040707552 L 24.277555179777966,5.987513214418485 A 107.60107138487902 107.60107138487902 0 0 0 27.52212924773352,6.803050948472958 L 27.293463936475806,7.776556046265171 A 108.60107138487902 108.60107138487902 0 0 1 24.018736134675446,6.953439040707552 Z M 73.6089336515482,8.50805655451218 L 73.41112554846057,7.527815791050031 A 107.60107138487902 107.60107138487902 0 0 0 76.67983589544654,6.815148024399497 L 75.9952774467671,3.8942954553125873 L 83.60925163142923,5.7046537389953 L 77.59258049368579,10.709618116515378 L 76.90802204500635,7.788765547428468 A 108.60107138487902 108.60107138487902 0 0 1 73.6089336515482,8.50805655451218"/><text text-anchor="middle" pointer-events="none" font-size="8px" fill="#000000" x="50.41964036226092" y="13.140450626392507" transform="rotate(180 50.41964036226092 10.140450626392507)" font-family="sans-serif">twowheeler</text></g></g><g class="layer nodes"><g class="node" transform="translate(72.85882234947697,-83.59443425601762)"><circle class="outline" cx="0" cy="0" r="25" fill="#ECB5C9" stroke="#da7298" stroke-width="2px"/><text text-anchor="middle" pointer-events="none" font-family="sans-serif" dy="1.5625" font-size="25" fill="#2A2C34"/><text text-anchor="middle" pointer-events="none" x="0" y="5" font-size="10px" fill="#2A2C34" font-family="sans-serif"> Darjeeling</text></g><g class="node" transform="translate(390.4089210991678,-8.665359252121974)"><circle class="outline" cx="0" cy="0" r="25" fill="#4C8EDA" stroke="#2870c2" stroke-width="2px"/><text text-anchor="middle" pointer-events="none" font-family="sans-serif" dy="1.5625" font-size="25" fill="#FFFFFF"/><text text-anchor="middle" pointer-events="none" x="0" y="5" font-size="10px" fill="#FFFFFF" font-family="sans-serif"> Sandak…</text></g><g class="node" transform="translate(134.30366266890476,294.49165195671304)"><circle class="outline" cx="0" cy="0" r="25" fill="#ECB5C9" stroke="#da7298" stroke-width="2px"/><text text-anchor="middle" pointer-events="none" font-family="sans-serif" dy="1.5625" font-size="25" fill="#2A2C34"/><text text-anchor="middle" pointer-events="none" x="0" y="5" font-size="10px" fill="#2A2C34" font-family="sans-serif"> Darjeeling</text></g><g class="node" transform="translate(-190.9108554103854,207.066540962603)"><circle class="outline" cx="0" cy="0" r="25" fill="#4C8EDA" stroke="#2870c2" stroke-width="2px"/><text text-anchor="middle" pointer-events="none" font-family="sans-serif" dy="1.5625" font-size="25" fill="#FFFFFF"/><text text-anchor="middle" pointer-events="none" x="0" y="5" font-size="10px" fill="#FFFFFF" font-family="sans-serif"> Sandak…</text></g><g class="node" transform="translate(187.5030394071122,-48.36527038989898)"><circle class="outline" cx="0" cy="0" r="25" fill="#ECB5C9" stroke="#da7298" stroke-width="2px"/><text text-anchor="middle" pointer-events="none" font-family="sans-serif" dy="1.5625" font-size="25" fill="#2A2C34"/><text text-anchor="middle" pointer-events="none" x="0" y="5" font-size="10px" fill="#2A2C34" font-family="sans-serif"> Rimbik</text></g><g class="node" transform="translate(258.5084228378776,76.68141922247764)"><circle class="outline" cx="0" cy="0" r="25" fill="#FFC454" stroke="#d7a013" stroke-width="2px"/><text text-anchor="middle" pointer-events="none" font-family="sans-serif" dy="1.5625" font-size="25" fill="#2A2C34"/><text text-anchor="middle" pointer-events="none" x="0" y="5" font-size="10px" fill="#2A2C34" font-family="sans-serif"> Sirikhola</text></g><g class="node" transform="translate(312.9227549553052,190.02885263808668)"><circle class="outline" cx="0" cy="0" r="25" fill="#FFC454" stroke="#d7a013" stroke-width="2px"/><text text-anchor="middle" pointer-events="none" font-family="sans-serif" dy="1.5625" font-size="25" fill="#2A2C34"/><text text-anchor="middle" pointer-events="none" x="0" y="5" font-size="10px" fill="#2A2C34" font-family="sans-serif"> Rammam</text></g><g class="node" transform="translate(341.0078534211603,86.4893065866227)"><circle class="outline" cx="0" cy="0" r="25" fill="#4C8EDA" stroke="#2870c2" stroke-width="2px"/><text text-anchor="middle" pointer-events="none" font-family="sans-serif" dy="1.5625" font-size="25" fill="#FFFFFF"/><text text-anchor="middle" pointer-events="none" x="0" y="5" font-size="10px" fill="#FFFFFF" font-family="sans-serif"> Sabargr…</text></g><g class="node" transform="translate(392.85124516995296,116.54036041931089)"><circle class="outline" cx="0" cy="0" r="25" fill="#FFC454" stroke="#d7a013" stroke-width="2px"/><text text-anchor="middle" pointer-events="none" font-family="sans-serif" dy="1.5625" font-size="25" fill="#2A2C34"/><text text-anchor="middle" pointer-events="none" x="0" y="5" font-size="10px" fill="#2A2C34" font-family="sans-serif"> Gurdum</text></g><g class="node" transform="translate(133.01803490964903,-162.43052590303273)"><circle class="outline" cx="0" cy="0" r="25" fill="#FFC454" stroke="#d7a013" stroke-width="2px"/><text text-anchor="middle" pointer-events="none" font-family="sans-serif" dy="1.5625" font-size="25" fill="#2A2C34"/><text text-anchor="middle" pointer-events="none" x="0" y="5" font-size="10px" fill="#2A2C34" font-family="sans-serif"> Tumbling</text></g><g class="node" transform="translate(236.36366903196608,-198.4832293251448)"><circle class="outline" cx="0" cy="0" r="25" fill="#FFC454" stroke="#d7a013" stroke-width="2px"/><text text-anchor="middle" pointer-events="none" font-family="sans-serif" dy="1.5625" font-size="25" fill="#2A2C34"/><text text-anchor="middle" pointer-events="none" x="0" y="5" font-size="10px" fill="#2A2C34" font-family="sans-serif"> Gairibus</text></g><g class="node" transform="translate(297.5509766572342,-96.62252686680901)"><circle class="outline" cx="0" cy="0" r="25" fill="#FFC454" stroke="#d7a013" stroke-width="2px"/><text text-anchor="middle" pointer-events="none" font-family="sans-serif" dy="1.5625" font-size="25" fill="#2A2C34"/><text text-anchor="middle" pointer-events="none" x="0" y="5" font-size="10px" fill="#2A2C34" font-family="sans-serif"> BhikeBh…</text></g><g class="node" transform="translate(22.824447307993843,256.0767947788351)"><circle class="outline" cx="0" cy="0" r="25" fill="#ECB5C9" stroke="#da7298" stroke-width="2px"/><text text-anchor="middle" pointer-events="none" font-family="sans-serif" dy="1.5625" font-size="25" fill="#2A2C34"/><text text-anchor="middle" pointer-events="none" x="0" y="5" font-size="10px" fill="#2A2C34" font-family="sans-serif"> Rimbik</text></g><g class="node" transform="translate(-24.19434100805759,130.08283515452655)"><circle class="outline" cx="0" cy="0" r="25" fill="#FFC454" stroke="#d7a013" stroke-width="2px"/><text text-anchor="middle" pointer-events="none" font-family="sans-serif" dy="1.5625" font-size="25" fill="#2A2C34"/><text text-anchor="middle" pointer-events="none" x="0" y="5" font-size="10px" fill="#2A2C34" font-family="sans-serif"> Sirikhola</text></g><g class="node" transform="translate(-102.49819192545434,24.209663575112806)"><circle class="outline" cx="0" cy="0" r="25" fill="#FFC454" stroke="#d7a013" stroke-width="2px"/><text text-anchor="middle" pointer-events="none" font-family="sans-serif" dy="1.5625" font-size="25" fill="#2A2C34"/><text text-anchor="middle" pointer-events="none" x="0" y="5" font-size="10px" fill="#2A2C34" font-family="sans-serif"> Rammam</text></g><g class="node" transform="translate(-131.57089920591332,118.97381821092495)"><circle class="outline" cx="0" cy="0" r="25" fill="#FFC454" stroke="#d7a013" stroke-width="2px"/><text text-anchor="middle" pointer-events="none" font-family="sans-serif" dy="1.5625" font-size="25" fill="#2A2C34"/><text text-anchor="middle" pointer-events="none" x="0" y="5" font-size="10px" fill="#2A2C34" font-family="sans-serif"> Gurdum</text></g><g class="node" transform="translate(68.11773436989691,370.02456223991726)"><circle class="outline" cx="0" cy="0" r="25" fill="#FFC454" stroke="#d7a013" stroke-width="2px"/><text text-anchor="middle" pointer-events="none" font-family="sans-serif" dy="1.5625" font-size="25" fill="#2A2C34"/><text text-anchor="middle" pointer-events="none" x="0" y="5" font-size="10px" fill="#2A2C34" font-family="sans-serif"> Tumbling</text></g><g class="node" transform="translate(-39.01752213734603,397.93300143282335)"><circle class="outline" cx="0" cy="0" r="25" fill="#FFC454" stroke="#d7a013" stroke-width="2px"/><text text-anchor="middle" pointer-events="none" font-family="sans-serif" dy="1.5625" font-size="25" fill="#2A2C34"/><text text-anchor="middle" pointer-events="none" x="0" y="5" font-size="10px" fill="#2A2C34" font-family="sans-serif"> Gairibus</text></g><g class="node" transform="translate(-94.23713243204705,293.17917443290827)"><circle class="outline" cx="0" cy="0" r="25" fill="#FFC454" stroke="#d7a013" stroke-width="2px"/><text text-anchor="middle" pointer-events="none" font-family="sans-serif" dy="1.5625" font-size="25" fill="#2A2C34"/><text text-anchor="middle" pointer-events="none" x="0" y="5" font-size="10px" fill="#2A2C34" font-family="sans-serif"> BhikeBh…</text></g><g class="node" transform="translate(-211.0483370450831,79.39579782526597)"><circle class="outline" cx="0" cy="0" r="25" fill="#4C8EDA" stroke="#2870c2" stroke-width="2px"/><text text-anchor="middle" pointer-events="none" font-family="sans-serif" dy="1.5625" font-size="25" fill="#FFFFFF"/><text text-anchor="middle" pointer-events="none" x="0" y="5" font-size="10px" fill="#FFFFFF" font-family="sans-serif"> Sabargr…</text></g></g></svg>