<svg xmlns="http://www.w3.org/2000/svg" width="753.951904296875" height="736.0418701171875" viewBox="-266.1385498046875 -254.4447784423828 753.951904296875 736.0418701171875"><title>Neo4j Graph Visualization</title><desc>Created using Neo4j (http://www.neo4j.com/)</desc><g class="layer relationships"><g class="relationship" transform="translate(104.10666107798654 272.59645606425465) rotate(314.7738200650766)"><path class="outline" fill="#A5ABB6" stroke="none" d="M 21.40063509461097,12.933012701892217 L 21.90063509461097,12.06698729810778 A 57.809200646070096 57.809200646070096 0 0 0 24.345557223173675,13.401088577219241 L 23.88785018175533,14.290191644493262 A 58.809200646070096 58.809200646070096 0 0 1 21.40063509461097,12.933012701892217 Z M 74.38897683530874,15.876020974321925 L 73.9879555468271,14.959952239900474 A 57.809200646070096 57.809200646070096 0 0 0 76.5117646488968,13.781878365318594 L 75.17772807977161,11.094808133218821 L 83.00393461865046,11.116971409376477 L 78.29048007439704,17.364638674784956 L 76.95644350527185,14.677568442685185 A 58.809200646070096 58.809200646070096 0 0 1 74.38897683530874,15.876020974321925"/><text text-anchor="middle" pointer-events="none" font-size="8px" fill="#000000" x="48.975120133034" y="23.28322417997559" font-family="sans-serif">PRODUCED</text></g><g class="relationship" transform="translate(104.10666107798654 272.59645606425465) rotate(314.7738200650766)"><path class="outline" fill="#A5ABB6" stroke="none" d="M 25 0.5 L 25.75278077640762 0.5 L 25.75278077640762 -0.5 L 25 -0.5 Z M 72.64340577640762 0.5 L 73.39618655281524 0.5 L 73.39618655281524 3.5 L 80.39618655281524 0 L 73.39618655281524 -3.5 L 73.39618655281524 -0.5 L 72.64340577640762 -0.5 Z"/><text text-anchor="middle" pointer-events="none" font-size="8px" fill="#000000" x="49.19809327640762" y="3" font-family="sans-serif">DIRECTED</text></g><g class="relationship" transform="translate(104.10666107798654 272.59645606425465) rotate(314.7738200650766)"><path class="outline" fill="#A5ABB6" stroke="none" d="M 21.40063509461097,-12.933012701892217 L 21.90063509461097,-12.06698729810778 A 57.809200646070096 57.809200646070096 0 0 1 31.62758461902024,-16.538256732415626 L 31.295844159295868,-17.481627426990066 A 58.809200646070096 58.809200646070096 0 0 0 21.40063509461097,-12.933012701892217 Z M 66.79534157496973,-18.596377689536773 L 66.52344353891995,-17.634051623178664 A 57.809200646070096 57.809200646070096 0 0 1 76.5117646488968,-13.781878365318594 L 75.17772807977161,-11.094808133218821 L 83.00393461865046,-11.116971409376477 L 78.29048007439704,-17.364638674784956 L 76.95644350527185,-14.677568442685185 A 58.809200646070096 58.809200646070096 0 0 0 66.79534157496973,-18.596377689536773"/><text text-anchor="middle" pointer-events="none" font-size="8px" fill="#000000" x="48.975120133033975" y="-17.28322417997559" font-family="sans-serif">WROTE</text></g><g class="relationship" transform="translate(275.7835718320347 405.86941450528644) rotate(292.9709337932793)"><path class="outline" fill="#A5ABB6" stroke="none" d="M 24.018736134675446,6.953439040707552 L 24.277555179777966,5.987513214418485 A 102.48752551135196 102.48752551135196 0 0 0 31.46459800287729,7.638617527057605 L 31.275904983232405,8.620653648764588 A 103.48752551135196 103.48752551135196 0 0 1 24.018736134675446,6.953439040707552 Z M 67.03790812151131,9.198352851088131 L 66.88103289066831,8.210734421760321 A 102.48752551135196 102.48752551135196 0 0 0 74.11765569602977,6.792629924481791 L 73.43520062906941,3.871285185910162 L 81.04786926385697,5.687125558002913 L 75.02759578531024,10.687756242577297 L 74.34514071834988,7.766411504005668 A 103.48752551135196 103.48752551135196 0 0 1 67.03790812151131,9.198352851088131"/><text text-anchor="middle" pointer-events="none" font-size="8px" fill="#000000" x="49.13983577078351" y="12.966256214583055" font-family="sans-serif">WROTE</text></g><g class="relationship" transform="translate(275.7835718320347 405.86941450528644) rotate(292.9709337932793)"><path class="outline" fill="#A5ABB6" stroke="none" d="M 24.018736134675446,-6.953439040707552 L 24.277555179777966,-5.987513214418485 A 102.48752551135196 102.48752551135196 0 0 1 26.063158448000564,-6.44878582828666 L 25.821762042963883,-7.4192124229528105 A 103.48752551135196 103.48752551135196 0 0 0 24.018736134675446,-6.953439040707552 Z M 72.52801129384713,-8.173704916883594 L 72.3180851938756,-7.195987660949783 A 102.48752551135196 102.48752551135196 0 0 1 74.11765569602977,-6.792629924481791 L 73.43520062906941,-3.871285185910162 L 81.04786926385697,-5.687125558002913 L 75.02759578531024,-10.687756242577297 L 74.34514071834988,-7.766411504005668 A 103.48752551135196 103.48752551135196 0 0 0 72.52801129384713,-8.173704916883594"/><text text-anchor="middle" pointer-events="none" font-size="8px" fill="#000000" x="49.13983577078353" y="-6.966256214583055" font-family="sans-serif">DIRECTED</text></g><g class="relationship" transform="translate(401.90406299108116 248.74864401337393) rotate(504.7405840797574)"><path class="outline" fill="#A5ABB6" stroke="none" d="M 24.018736134675446,6.953439040707552 L 24.277555179777966,5.987513214418485 A 99.86835420104956 99.86835420104956 0 0 0 30.817948279737656,7.506329044299505 L 30.6246193806607,8.487463049816427 A 100.86835420104956 100.86835420104956 0 0 1 24.018736134675446,6.953439040707552 Z M 66.38149524495566,9.071896448922445 L 66.22033361875822,8.084968422042365 A 99.86835420104956 99.86835420104956 0 0 0 72.8068689016332,6.7807075606580005 L 72.12552749474715,3.859102883898578 L 79.73750338188619,5.677845057383781 L 73.71532411081459,10.676180463003899 L 73.03398270392854,7.754575786244476 A 100.86835420104956 100.86835420104956 0 0 1 66.38149524495566,9.071896448922445"/><text text-anchor="middle" pointer-events="none" font-size="8px" fill="#000000" x="48.485121334419055" y="12.87704097777602" transform="rotate(180 48.485121334419055 9.87704097777602)" font-family="sans-serif">WROTE</text></g><g class="relationship" transform="translate(401.90406299108116 248.74864401337393) rotate(504.7405840797574)"><path class="outline" fill="#A5ABB6" stroke="none" d="M 24.018736134675446,-6.953439040707552 L 24.277555179777966,-5.987513214418485 A 99.86835420104956 99.86835420104956 0 0 1 25.423766995717735,-6.287364018513529 L 25.17642517806238,-7.256292305456867 A 100.86835420104956 100.86835420104956 0 0 0 24.018736134675446,-6.953439040707552 Z M 71.86701462913474,-8.019433358459281 L 71.65147004578856,-7.042939358175559 A 99.86835420104956 99.86835420104956 0 0 1 72.8068689016332,-6.7807075606580005 L 72.12552749474715,-3.859102883898578 L 79.73750338188619,-5.677845057383781 L 73.71532411081459,-10.676180463003899 L 73.03398270392854,-7.754575786244476 A 100.86835420104956 100.86835420104956 0 0 0 71.86701462913474,-8.019433358459281"/><text text-anchor="middle" pointer-events="none" font-size="8px" fill="#000000" x="48.485121334419" y="-6.877040977776019" transform="rotate(180 48.485121334419 -9.87704097777602)" font-family="sans-serif">DIRECTED</text></g><g class="relationship" transform="translate(458.8133104075943 70.89906835211234) rotate(213.36174126834544)"><path class="outline" fill="#A5ABB6" stroke="none" d="M 21.40063509461097,12.933012701892217 L 21.90063509461097,12.06698729810778 A 55.06101694465071 55.06101694465071 0 0 0 23.12335197778527,12.752321863141304 L 22.64555855788537,13.630794086891349 A 56.06101694465071 56.06101694465071 0 0 1 21.40063509461097,12.933012701892217 Z M 72.99632642079874,15.250417145372715 L 72.57597759128805,14.343054559892686 A 55.06101694465071 55.06101694465071 0 0 0 73.84021125847474,13.737717234774863 L 72.51028298729467,11.048611287900322 L 80.33644651304533,11.08273559316715 L 75.61344895338148,17.323191830607584 L 74.28352068220141,14.634085883733043 A 56.06101694465071 56.06101694465071 0 0 1 72.99632642079874,15.250417145372715"/><text text-anchor="middle" pointer-events="none" font-size="8px" fill="#000000" x="47.64484737456789" y="22.915042522519897" transform="rotate(180 47.64484737456789 19.915042522519897)" font-family="sans-serif">PRODUCED</text></g><g class="relationship" transform="translate(458.8133104075943 70.89906835211234) rotate(213.36174126834544)"><path class="outline" fill="#A5ABB6" stroke="none" d="M 25 0.5 L 29.986112618499916 0.5 L 29.986112618499916 -0.5 L 25 -0.5 Z M 65.75955011849992 0.5 L 70.74566273699983 0.5 L 70.74566273699983 3.5 L 77.74566273699983 0 L 70.74566273699983 -3.5 L 70.74566273699983 -0.5 L 65.75955011849992 -0.5 Z"/><text text-anchor="middle" pointer-events="none" font-size="8px" fill="#000000" x="47.87283136849992" y="3" transform="rotate(180 47.87283136849992 0)" font-family="sans-serif">WROTE</text></g><g class="relationship" transform="translate(458.8133104075943 70.89906835211234) rotate(213.36174126834544)"><path class="outline" fill="#A5ABB6" stroke="none" d="M 21.40063509461097,-12.933012701892217 L 21.90063509461097,-12.06698729810778 A 55.06101694465071 55.06101694465071 0 0 1 25.27694746418544,-13.862949943119915 L 24.838266934055902,-14.761593027155655 A 56.06101694465071 56.06101694465071 0 0 0 21.40063509461097,-12.933012701892217 Z M 70.73547778765409,-16.237959409905955 L 70.35545731385942,-15.312981334762078 A 55.06101694465071 55.06101694465071 0 0 1 73.84021125847474,-13.737717234774863 L 72.51028298729467,-11.048611287900322 L 80.33644651304533,-11.08273559316715 L 75.61344895338148,-17.323191830607584 L 74.28352068220141,-14.634085883733043 A 56.06101694465071 56.06101694465071 0 0 0 70.73547778765409,-16.237959409905955"/><text text-anchor="middle" pointer-events="none" font-size="8px" fill="#000000" x="47.644847374567874" y="-16.915042522519897" transform="rotate(180 47.644847374567874 -19.915042522519897)" font-family="sans-serif">DIRECTED</text></g><g class="relationship" transform="translate(331.4785221380756 -190.65573234604514) rotate(483.7324625973575)"><path class="outline" fill="#A5ABB6" stroke="none" d="M 21.40063509461097,12.933012701892217 L 21.90063509461097,12.06698729810778 A 55.61807976893273 55.61807976893273 0 0 0 23.36973912003229,12.88581083592117 L 22.896153265064353,13.76655849443312 A 56.61807976893273 56.61807976893273 0 0 1 21.40063509461097,12.933012701892217 Z M 73.27925251646022,15.3792641841967 L 72.86296186100927,14.470032590935539 A 55.61807976893273 55.61807976893273 0 0 0 74.38142414362957,13.74683765190057 L 73.05064739259545,11.058151497120306 L 80.87682129662254,11.089806258617669 L 76.15579314500839,17.33175252494092 L 74.82501639397427,14.643066370160657 A 56.61807976893273 56.61807976893273 0 0 1 73.27925251646022,15.3792641841967"/><text text-anchor="middle" pointer-events="none" font-size="8px" fill="#000000" x="47.914318583466994" y="22.989670775671826" transform="rotate(180 47.914318583466994 19.989670775671826)" font-family="sans-serif">PRODUCED</text></g><g class="relationship" transform="translate(331.4785221380756 -190.65573234604514) rotate(483.7324625973575)"><path class="outline" fill="#A5ABB6" stroke="none" d="M 25 0.5 L 30.25455087656237 0.5 L 30.25455087656237 -0.5 L 25 -0.5 Z M 66.02798837656238 0.5 L 71.28253925312474 0.5 L 71.28253925312474 3.5 L 78.28253925312474 0 L 71.28253925312474 -3.5 L 71.28253925312474 -0.5 L 66.02798837656238 -0.5 Z"/><text text-anchor="middle" pointer-events="none" font-size="8px" fill="#000000" x="48.14126962656237" y="3" transform="rotate(180 48.14126962656237 0)" font-family="sans-serif">WROTE</text></g><g class="relationship" transform="translate(331.4785221380756 -190.65573234604514) rotate(483.7324625973575)"><path class="outline" fill="#A5ABB6" stroke="none" d="M 21.40063509461097,-12.933012701892217 L 21.90063509461097,-12.06698729810778 A 55.61807976893273 55.61807976893273 0 0 1 25.52858018541722,-13.98669721126057 L 25.09380978532212,-14.88723854801372 A 56.61807976893273 56.61807976893273 0 0 0 21.40063509461097,-12.933012701892217 Z M 71.01442472437898,-16.357105191590797 L 70.63813591641782,-15.430602772272223 A 55.61807976893273 55.61807976893273 0 0 1 74.38142414362957,-13.74683765190057 L 73.05064739259545,-11.058151497120306 L 80.87682129662254,-11.089806258617669 L 76.15579314500839,-17.33175252494092 L 74.82501639397427,-14.643066370160657 A 56.61807976893273 56.61807976893273 0 0 0 71.01442472437898,-16.357105191590797"/><text text-anchor="middle" pointer-events="none" font-size="8px" fill="#000000" x="47.91431858346697" y="-16.989670775671826" transform="rotate(180 47.91431858346697 -19.989670775671826)" font-family="sans-serif">DIRECTED</text></g><g class="relationship" transform="translate(118.2525708920057 -207.20447368079635) rotate(501.8390993568396)"><path class="outline" fill="#A5ABB6" stroke="none" d="M 24.018736134675446,-6.953439040707552 L 24.277555179777966,-5.987513214418485 A 105.4916085669149 105.4916085669149 0 0 1 32.207585412365646,-7.787880473338589 L 32.02393850977111,-8.770872749588733 A 106.4916085669149 106.4916085669149 0 0 0 24.018736134675446,-6.953439040707552 Z M 67.79123366476016,-9.341022639164649 L 67.63901095625276,-8.352676420972529 A 105.4916085669149 105.4916085669149 0 0 1 75.62239522037734,-6.805977533640491 L 74.93869337039375,-3.8849243365334933 L 82.5521363219576,-5.697515416529941 L 76.53399768702214,-10.700715129783156 L 75.85029583703854,-7.779661932676157 A 106.4916085669149 106.4916085669149 0 0 0 67.79123366476016,-9.341022639164649"/><text text-anchor="middle" pointer-events="none" font-size="8px" fill="#000000" x="49.89144404266452" y="-7.068588903659943" transform="rotate(180 49.89144404266452 -10.068588903659943)" font-family="sans-serif">WROTE</text></g><g class="relationship" transform="translate(118.2525708920057 -207.20447368079635) rotate(501.8390993568396)"><path class="outline" fill="#A5ABB6" stroke="none" d="M 24.018736134675446,6.953439040707552 L 24.277555179777966,5.987513214418485 A 105.4916085669149 105.4916085669149 0 0 0 26.798434465222222,6.629774080333675 L 26.5635119112216,7.601788171600788 A 106.4916085669149 106.4916085669149 0 0 1 24.018736134675446,6.953439040707552 Z M 73.28614817506669,8.346572080786359 L 73.08232595947838,7.3675641623134425 A 105.4916085669149 105.4916085669149 0 0 0 75.62239522037734,6.805977533640491 L 74.93869337039375,3.8849243365334933 L 82.5521363219576,5.697515416529941 L 76.53399768702214,10.700715129783156 L 75.85029583703854,7.779661932676157 A 106.4916085669149 106.4916085669149 0 0 1 73.28614817506669,8.346572080786359"/><text text-anchor="middle" pointer-events="none" font-size="8px" fill="#000000" x="49.89144404266452" y="13.068588903659943" transform="rotate(180 49.89144404266452 10.068588903659943)" font-family="sans-serif">DIRECTED</text></g><g class="relationship" transform="translate(-28.403534442185247 -225.4447791186472) rotate(413.39553692874904)"><path class="outline" fill="#A5ABB6" stroke="none" d="M 24.018736134675446,-6.953439040707552 L 24.277555179777966,-5.987513214418485 A 101.69290620934237 101.69290620934237 0 0 1 31.26829812085152,-7.598702347926363 L 31.078222739409103,-8.580471847029656 A 102.69290620934237 102.69290620934237 0 0 0 24.018736134675446,-6.953439040707552 Z M 66.83872366002926,-9.16019894063703 L 66.68057147405118,-8.172784191876218 A 101.69290620934237 101.69290620934237 0 0 1 73.71986639758987,-6.789041343097617 L 73.03774653689642,-3.8676183173022185 L 80.65020676789472,-5.684332172445457 L 74.62935954518115,-10.68427204415815 L 73.9472396844877,-7.7628490183627505 A 102.69290620934237 102.69290620934237 0 0 0 66.83872366002926,-9.16019894063703"/><text text-anchor="middle" pointer-events="none" font-size="8px" fill="#000000" x="48.94114560683918" y="-6.939189011285805" font-family="sans-serif">WROTE</text></g><g class="relationship" transform="translate(-28.403534442185247 -225.4447791186472) rotate(413.39553692874904)"><path class="outline" fill="#A5ABB6" stroke="none" d="M 24.018736134675446,6.953439040707552 L 24.277555179777966,5.987513214418485 A 101.69290620934237 101.69290620934237 0 0 0 25.86900546025874,6.400182149339329 L 25.625835985414394,7.370165966989873 A 102.69290620934237 102.69290620934237 0 0 1 24.018736134675446,6.953439040707552 Z M 72.32747644428989,8.127264038686874 L 72.11587604083638,7.149907773419031 A 101.69290620934237 101.69290620934237 0 0 0 73.71986639758987,6.789041343097617 L 73.03774653689642,3.8676183173022185 L 80.65020676789472,5.684332172445457 L 74.62935954518115,10.68427204415815 L 73.9472396844877,7.7628490183627505 A 102.69290620934237 102.69290620934237 0 0 1 72.32747644428989,8.127264038686874"/><text text-anchor="middle" pointer-events="none" font-size="8px" fill="#000000" x="48.94114560683917" y="12.939189011285805" font-family="sans-serif">DIRECTED</text></g><g class="relationship selected" transform="translate(19.336610665283903 41.77833178134668) rotate(361.1985242107731)"><path class="outline" fill="#A5ABB6" stroke="none" d="M 21.40063509461097,12.933012701892217 L 21.90063509461097,12.06698729810778 A 57.26541216750293 57.26541216750293 0 0 0 24.102428425495404,13.274613564509522 L 23.640877346886978,14.16172719975328 A 58.26541216750293 58.26541216750293 0 0 1 21.40063509461097,12.933012701892217 Z M 74.11400299660855,15.754175871464952 L 73.7092918491021,14.839731292999957 A 57.26541216750293 57.26541216750293 0 0 0 75.98283254967302,13.773303726740497 L 74.64959366735064,11.085837618551635 L 82.47579328250076,11.1103240193531 L 77.76048439276951,17.35659187099231 L 76.42724551044714,14.66912576280345 A 58.26541216750293 58.26541216750293 0 0 1 74.11400299660855,15.754175871464952"/><text text-anchor="middle" pointer-events="none" font-size="8px" fill="#000000" x="48.71172417251722" y="23.210368520793054" font-family="sans-serif">PRODUCED</text></g><g class="relationship" transform="translate(19.336610665283903 41.77833178134668) rotate(361.1985242107731)"><path class="outline" fill="#A5ABB6" stroke="none" d="M 25 0.5 L 25.49035959203728 0.5 L 25.49035959203728 -0.5 L 25 -0.5 Z M 72.38098459203728 0.5 L 72.87134418407456 0.5 L 72.87134418407456 3.5 L 79.87134418407456 0 L 72.87134418407456 -3.5 L 72.87134418407456 -0.5 L 72.38098459203728 -0.5 Z"/><text text-anchor="middle" pointer-events="none" font-size="8px" fill="#000000" x="48.93567209203728" y="3" font-family="sans-serif">DIRECTED</text></g><g class="relationship" transform="translate(19.336610665283903 41.77833178134668) rotate(361.1985242107731)"><path class="outline" fill="#A5ABB6" stroke="none" d="M 21.40063509461097,-12.933012701892217 L 21.90063509461097,-12.06698729810778 A 57.26541216750293 57.26541216750293 0 0 1 31.372154713818617,-16.438269952092035 L 31.03755157836057,-17.380629088378008 A 58.26541216750293 58.26541216750293 0 0 0 21.40063509461097,-12.933012701892217 Z M 66.52912638325468,-18.500403432198958 L 66.25459326643904,-17.538825786986934 A 57.26541216750293 57.26541216750293 0 0 1 75.98283254967302,-13.773303726740497 L 74.64959366735064,-11.085837618551635 L 82.47579328250076,-11.1103240193531 L 77.76048439276951,-17.35659187099231 L 76.42724551044714,-14.66912576280345 A 58.26541216750293 58.26541216750293 0 0 0 66.52912638325468,-18.500403432198958"/><text text-anchor="middle" pointer-events="none" font-size="8px" fill="#000000" x="48.71172417251722" y="-17.210368520793054" font-family="sans-serif">WROTE</text></g><g class="relationship" transform="translate(-178.01085822827727 -99.77706411182156) rotate(484.42743274190934)"><path class="outline" fill="#A5ABB6" stroke="none" d="M 21.40063509461097,12.933012701892217 L 21.90063509461097,12.06698729810778 A 56.96735316296177 56.96735316296177 0 0 0 26.14038453424997,14.282867772337866 L 25.71480872993817,15.187790550692114 A 57.96735316296177 57.96735316296177 0 0 1 21.40063509461097,12.933012701892217 Z M 71.68919155055497,16.642072207576383 L 71.32165916013221,15.712061486138104 A 56.96735316296177 56.96735316296177 0 0 0 75.69297965745388,13.768570118344348 L 74.36018113815298,11.080885593153685 L 82.18637663611557,11.106654327507394 L 77.47004434985506,17.352149485265233 L 76.13724583055416,14.66446496007457 A 57.96735316296177 57.96735316296177 0 0 1 71.68919155055497,16.642072207576383"/><text text-anchor="middle" pointer-events="none" font-size="8px" fill="#000000" x="48.56738817620037" y="23.17043576372108" transform="rotate(180 48.56738817620037 20.17043576372108)" font-family="sans-serif">DIRECTED</text></g><g class="relationship" transform="translate(-178.01085822827727 -99.77706411182156) rotate(484.42743274190934)"><path class="outline" fill="#A5ABB6" stroke="none" d="M 25 0.5 L 30.90515508968557 0.5 L 30.90515508968557 -0.5 L 25 -0.5 Z M 66.67859258968556 0.5 L 72.58374767937114 0.5 L 72.58374767937114 3.5 L 79.58374767937114 0 L 72.58374767937114 -3.5 L 72.58374767937114 -0.5 L 66.67859258968556 -0.5 Z"/><text text-anchor="middle" pointer-events="none" font-size="8px" fill="#000000" x="48.79187383968557" y="3" transform="rotate(180 48.79187383968557 0)" font-family="sans-serif">WROTE</text></g><g class="relationship" transform="translate(-178.01085822827727 -99.77706411182156) rotate(484.42743274190934)"><path class="outline" fill="#A5ABB6" stroke="none" d="M 21.40063509461097,-12.933012701892217 L 21.90063509461097,-12.06698729810778 A 56.96735316296177 56.96735316296177 0 0 1 23.96942518860906,-13.204905086983196 L 23.505740551341116,-14.090905401408477 A 57.96735316296177 57.96735316296177 0 0 0 21.40063509461097,-12.933012701892217 Z M 73.96316824096375,-15.686996681826422 L 73.55640727503547,-14.773462053803435 A 56.96735316296177 56.96735316296177 0 0 1 75.69297965745388,-13.768570118344348 L 74.36018113815298,-11.080885593153685 L 82.18637663611557,-11.106654327507394 L 77.47004434985506,-17.352149485265233 L 76.13724583055416,-14.66446496007457 A 57.96735316296177 57.96735316296177 0 0 0 73.96316824096375,-15.686996681826422"/><text text-anchor="middle" pointer-events="none" font-size="8px" fill="#000000" x="48.56738817620036" y="-17.17043576372108" transform="rotate(180 48.56738817620036 -20.17043576372108)" font-family="sans-serif">PRODUCED</text></g><g class="relationship" transform="translate(-197.241258831092 147.59897383098954) rotate(382.51129225172747)"><path class="outline" fill="#A5ABB6" stroke="none" d="M 24.018736134675446,-6.953439040707552 L 24.277555179777966,-5.987513214418485 A 104.39056115041997 104.39056115041997 0 0 1 31.935111626860433,-7.733466319369981 L 31.749647455634378,-8.716117346536507 A 105.39056115041997 105.39056115041997 0 0 0 24.018736134675446,-6.953439040707552 Z M 67.51507138101766,-9.289012861738797 L 67.36117476381091,-8.300925906449777 A 104.39056115041997 104.39056115041997 0 0 1 75.07072214510308,-6.801125199503998 L 74.38747354440633,-3.87996595193704 L 82.00063515620876,-5.693738339139444 L 75.98172027936539,-10.696004196259942 L 75.29847167866865,-7.774844948692984 A 105.39056115041997 105.39056115041997 0 0 0 67.51507138101766,-9.289012861738797"/><text text-anchor="middle" pointer-events="none" font-size="8px" fill="#000000" x="49.615884500728484" y="-7.031081467725599" font-family="sans-serif">WROTE</text></g><g class="relationship" transform="translate(-197.241258831092 147.59897383098954) rotate(382.51129225172747)"><path class="outline" fill="#A5ABB6" stroke="none" d="M 24.018736134675446,6.953439040707552 L 24.277555179777966,5.987513214418485 A 104.39056115041997 104.39056115041997 0 0 0 26.528715106657366,6.5639329893192695 L 26.291460845785057,7.53538057704489 A 105.39056115041997 105.39056115041997 0 0 1 24.018736134675446,6.953439040707552 Z M 73.0082744852421,8.283696969838758 L 72.8022555238305,7.305148970229695 A 104.39056115041997 104.39056115041997 0 0 0 75.07072214510308,6.801125199503998 L 74.38747354440633,3.87996595193704 L 82.00063515620876,5.693738339139444 L 75.98172027936539,10.696004196259942 L 75.29847167866865,7.774844948692984 A 105.39056115041997 105.39056115041997 0 0 1 73.0082744852421,8.283696969838758"/><text text-anchor="middle" pointer-events="none" font-size="8px" fill="#000000" x="49.61588450072848" y="13.031081467725599" font-family="sans-serif">DIRECTED</text></g><g class="relationship" transform="translate(-154.69097592763137 279.5622788695824) rotate(301.39651453869305)"><path class="outline" fill="#A5ABB6" stroke="none" d="M 24.018736134675446,-6.953439040707552 L 24.277555179777966,-5.987513214418485 A 105.50318032848763 105.50318032848763 0 0 1 26.801270519162287,-6.630463101848733 L 26.56637222537292,-7.602483056157723 A 106.50318032848763 106.50318032848763 0 0 0 24.018736134675446,-6.953439040707552 Z M 73.28906860110534,-8.347229997522646 L 73.08526923129794,-7.368217323005041 A 105.50318032848763 105.50318032848763 0 0 1 75.62819415392997,-6.8060282890963615 L 74.94448756296113,-3.8849762016686546 L 82.55793345642276,-5.697554924740348 L 76.53980294188842,-10.700764405666638 L 75.85609635091959,-7.779712318238931 A 106.50318032848763 106.50318032848763 0 0 0 73.28906860110534,-8.347229997522646"/><text text-anchor="middle" pointer-events="none" font-size="8px" fill="#000000" x="49.894340611057046" y="-7.068983103012457" font-family="sans-serif">DIRECTED</text></g><g class="relationship" transform="translate(-154.69097592763137 279.5622788695824) rotate(301.39651453869305)"><path class="outline" fill="#A5ABB6" stroke="none" d="M 24.018736134675446,6.953439040707552 L 24.277555179777966,5.987513214418485 A 105.50318032848763 105.50318032848763 0 0 0 32.21044998874783,7.788450601351002 L 32.026821992713884,8.77144640961906 A 106.50318032848763 106.50318032848763 0 0 1 24.018736134675446,6.953439040707552 Z M 67.79413641140755,9.34156757300282 L 67.64193110830078,8.353218674229623 A 105.50318032848763 105.50318032848763 0 0 0 75.62819415392997,6.8060282890963615 L 74.94448756296113,3.8849762016686546 L 82.55793345642276,5.697554924740348 L 76.53980294188842,10.700764405666638 L 75.85609635091959,7.779712318238931 A 106.50318032848763 106.50318032848763 0 0 1 67.79413641140755,9.34156757300282"/><text text-anchor="middle" pointer-events="none" font-size="8px" fill="#000000" x="49.89434061105709" y="13.068983103012457" font-family="sans-serif">WROTE</text></g><g class="relationship" transform="translate(-51.17343683776315 423.88418748350904) rotate(375.7613738553825)"><path class="outline" fill="#A5ABB6" stroke="none" d="M 21.40063509461097,12.933012701892217 L 21.90063509461097,12.06698729810778 A 58.129279639183565 58.129279639183565 0 0 0 24.48894455712084,13.475115605634073 L 24.03347133396335,14.365365089198392 A 59.129279639183565 59.129279639183565 0 0 1 21.40063509461097,12.933012701892217 Z M 74.5507040082866,15.947314312531851 L 74.15182498865359,15.030310753271252 A 58.129279639183565 58.129279639183565 0 0 0 76.82316786076984,13.786888675387557 L 75.48866519152618,11.10004989611896 L 83.3148754572705,11.120855577030465 L 78.60250475309472,17.36934038107902 L 77.26800208385106,14.682501601810424 A 59.129279639183565 59.129279639183565 0 0 1 74.5507040082866,15.947314312531851"/><text text-anchor="middle" pointer-events="none" font-size="8px" fill="#000000" x="49.130196153638195" y="23.326108323176307" font-family="sans-serif">PRODUCED</text></g><g class="relationship" transform="translate(-51.17343683776315 423.88418748350904) rotate(375.7613738553825)"><path class="outline" fill="#A5ABB6" stroke="none" d="M 25 0.5 L 25.907286808921086 0.5 L 25.907286808921086 -0.5 L 25 -0.5 Z M 72.79791180892109 0.5 L 73.70519861784217 0.5 L 73.70519861784217 3.5 L 80.70519861784217 0 L 73.70519861784217 -3.5 L 73.70519861784217 -0.5 L 72.79791180892109 -0.5 Z"/><text text-anchor="middle" pointer-events="none" font-size="8px" fill="#000000" x="49.352599308921086" y="3" font-family="sans-serif">DIRECTED</text></g><g class="relationship" transform="translate(-51.17343683776315 423.88418748350904) rotate(375.7613738553825)"><path class="outline" fill="#A5ABB6" stroke="none" d="M 21.40063509461097,-12.933012701892217 L 21.90063509461097,-12.06698729810778 A 58.129279639183565 58.129279639183565 0 0 1 31.7780632155806,-16.59689538555567 L 31.44798495179134,-17.540848954209274 A 59.129279639183565 59.129279639183565 0 0 0 21.40063509461097,-12.933012701892217 Z M 66.95203198158728,-18.65265965029532 L 66.68166242584537,-17.68990303342482 A 58.129279639183565 58.129279639183565 0 0 1 76.82316786076984,-13.786888675387557 L 75.48866519152618,-11.10004989611896 L 83.3148754572705,-11.120855577030465 L 78.60250475309472,-17.36934038107902 L 77.26800208385106,-14.682501601810424 A 59.129279639183565 59.129279639183565 0 0 0 66.95203198158728,-18.65265965029532"/><text text-anchor="middle" pointer-events="none" font-size="8px" fill="#000000" x="49.13019615363819" y="-17.326108323176307" font-family="sans-serif">WROTE</text></g></g><g class="layer nodes"><g class="node" transform="translate(104.10666107798654,272.59645606425465)"><circle class="outline" cx="0" cy="0" r="25" fill="#F79767" stroke="#f36924" stroke-width="2px"/><text text-anchor="middle" pointer-events="none" font-family="sans-serif" dy="1.5625" font-size="25" fill="#FFFFFF"/><text text-anchor="middle" pointer-events="none" font-family="sans-serif" dy="1.5625" font-size="25" fill="#FFFFFF"/><text text-anchor="middle" pointer-events="none" x="0" y="0" font-size="10px" fill="#FFFFFF" font-family="sans-serif"> Cameron</text><text text-anchor="middle" pointer-events="none" x="0" y="10" font-size="10px" fill="#FFFFFF" font-family="sans-serif"> Crowe</text></g><g class="node" transform="translate(178.33824027611985,197.77648019131618)"><circle class="outline" cx="0" cy="0" r="25" fill="#57C7E3" stroke="#23b3d7" stroke-width="2px"/><text text-anchor="middle" pointer-events="none" font-family="sans-serif" dy="1.5625" font-size="25" fill="#2A2C34"/><text text-anchor="middle" pointer-events="none" font-family="sans-serif" dy="1.5625" font-size="25" fill="#2A2C34"/><text text-anchor="middle" pointer-events="none" x="0" y="0" font-size="10px" fill="#2A2C34" font-family="sans-serif"> Jerry</text><text text-anchor="middle" pointer-events="none" x="0" y="10" font-size="10px" fill="#2A2C34" font-family="sans-serif"> Maguire</text></g><g class="node" transform="translate(275.7835718320347,405.86941450528644)"><circle class="outline" cx="0" cy="0" r="25" fill="#F79767" stroke="#f36924" stroke-width="2px"/><text text-anchor="middle" pointer-events="none" font-family="sans-serif" dy="1.5625" font-size="25" fill="#FFFFFF"/><text text-anchor="middle" pointer-events="none" font-family="sans-serif" dy="1.5625" font-size="25" fill="#FFFFFF"/><text text-anchor="middle" pointer-events="none" x="0" y="0" font-size="10px" fill="#FFFFFF" font-family="sans-serif"> Lana</text><text text-anchor="middle" pointer-events="none" x="0" y="10" font-size="10px" fill="#FFFFFF" font-family="sans-serif"> Wacho…</text></g><g class="node" transform="translate(316.9144459275184,308.8343125128611)"><circle class="outline" cx="0" cy="0" r="25" fill="#57C7E3" stroke="#23b3d7" stroke-width="2px"/><text text-anchor="middle" pointer-events="none" font-family="sans-serif" dy="1.5625" font-size="25" fill="#2A2C34"/><text text-anchor="middle" pointer-events="none" font-family="sans-serif" dy="1.5625" font-size="25" fill="#2A2C34"/><text text-anchor="middle" pointer-events="none" x="0" y="0" font-size="10px" fill="#2A2C34" font-family="sans-serif"> Speed</text><text text-anchor="middle" pointer-events="none" x="0" y="10" font-size="10px" fill="#2A2C34" font-family="sans-serif"> Racer</text></g><g class="node" transform="translate(401.90406299108116,248.74864401337393)"><circle class="outline" cx="0" cy="0" r="25" fill="#F79767" stroke="#f36924" stroke-width="2px"/><text text-anchor="middle" pointer-events="none" font-family="sans-serif" dy="1.5625" font-size="25" fill="#FFFFFF"/><text text-anchor="middle" pointer-events="none" font-family="sans-serif" dy="1.5625" font-size="25" fill="#FFFFFF"/><text text-anchor="middle" pointer-events="none" x="0" y="0" font-size="10px" fill="#FFFFFF" font-family="sans-serif"> Andy</text><text text-anchor="middle" pointer-events="none" x="0" y="10" font-size="10px" fill="#FFFFFF" font-family="sans-serif"> Wacho…</text></g><g class="node" transform="translate(458.8133104075943,70.89906835211234)"><circle class="outline" cx="0" cy="0" r="25" fill="#F79767" stroke="#f36924" stroke-width="2px"/><text text-anchor="middle" pointer-events="none" font-family="sans-serif" dy="1.5625" font-size="25" fill="#FFFFFF"/><text text-anchor="middle" pointer-events="none" font-family="sans-serif" dy="1.5625" font-size="25" fill="#FFFFFF"/><text text-anchor="middle" pointer-events="none" x="0" y="0" font-size="10px" fill="#FFFFFF" font-family="sans-serif"> Nancy</text><text text-anchor="middle" pointer-events="none" x="0" y="10" font-size="10px" fill="#FFFFFF" font-family="sans-serif"> Meyers</text></g><g class="node" transform="translate(372.9985654444542,14.39684929678203)"><circle class="outline" cx="0" cy="0" r="25" fill="#57C7E3" stroke="#23b3d7" stroke-width="2px"/><text text-anchor="middle" pointer-events="none" font-family="sans-serif" dy="1.5625" font-size="25" fill="#2A2C34"/><text text-anchor="middle" pointer-events="none" x="0" y="5" font-size="10px" fill="#2A2C34" font-family="sans-serif"> Somethi…</text></g><g class="node" transform="translate(331.4785221380756,-190.65573234604514)"><circle class="outline" cx="0" cy="0" r="25" fill="#F79767" stroke="#f36924" stroke-width="2px"/><text text-anchor="middle" pointer-events="none" font-family="sans-serif" dy="1.5625" font-size="25" fill="#FFFFFF"/><text text-anchor="middle" pointer-events="none" font-family="sans-serif" dy="1.5625" font-size="25" fill="#FFFFFF"/><text text-anchor="middle" pointer-events="none" x="0" y="0" font-size="10px" fill="#FFFFFF" font-family="sans-serif"> Cameron</text><text text-anchor="middle" pointer-events="none" x="0" y="10" font-size="10px" fill="#FFFFFF" font-family="sans-serif"> Crowe</text></g><g class="node" transform="translate(274.1241059069307,-104.76188010179058)"><circle class="outline" cx="0" cy="0" r="25" fill="#57C7E3" stroke="#23b3d7" stroke-width="2px"/><text text-anchor="middle" pointer-events="none" font-family="sans-serif" dy="1.5625" font-size="25" fill="#2A2C34"/><text text-anchor="middle" pointer-events="none" font-family="sans-serif" dy="1.5625" font-size="25" fill="#2A2C34"/><text text-anchor="middle" pointer-events="none" x="0" y="0" font-size="10px" fill="#2A2C34" font-family="sans-serif"> Jerry</text><text text-anchor="middle" pointer-events="none" x="0" y="10" font-size="10px" fill="#2A2C34" font-family="sans-serif"> Maguire</text></g><g class="node" transform="translate(118.2525708920057,-207.20447368079635)"><circle class="outline" cx="0" cy="0" r="25" fill="#F79767" stroke="#f36924" stroke-width="2px"/><text text-anchor="middle" pointer-events="none" font-family="sans-serif" dy="1.5625" font-size="25" fill="#FFFFFF"/><text text-anchor="middle" pointer-events="none" font-family="sans-serif" dy="1.5625" font-size="25" fill="#FFFFFF"/><text text-anchor="middle" pointer-events="none" x="0" y="0" font-size="10px" fill="#FFFFFF" font-family="sans-serif"> Andy</text><text text-anchor="middle" pointer-events="none" x="0" y="10" font-size="10px" fill="#FFFFFF" font-family="sans-serif"> Wacho…</text></g><g class="node" transform="translate(34.203899760258516,-141.15751483655686)"><circle class="outline" cx="0" cy="0" r="25" fill="#57C7E3" stroke="#23b3d7" stroke-width="2px"/><text text-anchor="middle" pointer-events="none" font-family="sans-serif" dy="1.5625" font-size="25" fill="#2A2C34"/><text text-anchor="middle" pointer-events="none" font-family="sans-serif" dy="1.5625" font-size="25" fill="#2A2C34"/><text text-anchor="middle" pointer-events="none" x="0" y="0" font-size="10px" fill="#2A2C34" font-family="sans-serif"> Speed</text><text text-anchor="middle" pointer-events="none" x="0" y="10" font-size="10px" fill="#2A2C34" font-family="sans-serif"> Racer</text></g><g class="node" transform="translate(-28.403534442185247,-225.4447791186472)"><circle class="outline" cx="0" cy="0" r="25" fill="#F79767" stroke="#f36924" stroke-width="2px"/><text text-anchor="middle" pointer-events="none" font-family="sans-serif" dy="1.5625" font-size="25" fill="#FFFFFF"/><text text-anchor="middle" pointer-events="none" font-family="sans-serif" dy="1.5625" font-size="25" fill="#FFFFFF"/><text text-anchor="middle" pointer-events="none" x="0" y="0" font-size="10px" fill="#FFFFFF" font-family="sans-serif"> Lana</text><text text-anchor="middle" pointer-events="none" x="0" y="10" font-size="10px" fill="#FFFFFF" font-family="sans-serif"> Wacho…</text></g><g class="node" transform="translate(19.336610665283903,41.77833178134668)"><circle class="outline" cx="0" cy="0" r="25" fill="#F79767" stroke="#f36924" stroke-width="2px"/><text text-anchor="middle" pointer-events="none" font-family="sans-serif" dy="1.5625" font-size="25" fill="#FFFFFF"/><text text-anchor="middle" pointer-events="none" font-family="sans-serif" dy="1.5625" font-size="25" fill="#FFFFFF"/><text text-anchor="middle" pointer-events="none" x="0" y="0" font-size="10px" fill="#FFFFFF" font-family="sans-serif"> Nancy</text><text text-anchor="middle" pointer-events="none" x="0" y="10" font-size="10px" fill="#FFFFFF" font-family="sans-serif"> Meyers</text></g><g class="node" transform="translate(124.18501136568192,43.97189088549757)"><circle class="outline" cx="0" cy="0" r="25" fill="#57C7E3" stroke="#23b3d7" stroke-width="2px"/><text text-anchor="middle" pointer-events="none" font-family="sans-serif" dy="1.5625" font-size="25" fill="#2A2C34"/><text text-anchor="middle" pointer-events="none" x="0" y="5" font-size="10px" fill="#2A2C34" font-family="sans-serif"> Somethi…</text></g><g class="node" transform="translate(-178.01085822827727,-99.77706411182156)"><circle class="outline" cx="0" cy="0" r="25" fill="#F79767" stroke="#f36924" stroke-width="2px"/><text text-anchor="middle" pointer-events="none" font-family="sans-serif" dy="1.5625" font-size="25" fill="#FFFFFF"/><text text-anchor="middle" pointer-events="none" font-family="sans-serif" dy="1.5625" font-size="25" fill="#FFFFFF"/><text text-anchor="middle" pointer-events="none" x="0" y="0" font-size="10px" fill="#FFFFFF" font-family="sans-serif"> Cameron</text><text text-anchor="middle" pointer-events="none" x="0" y="10" font-size="10px" fill="#FFFFFF" font-family="sans-serif"> Crowe</text></g><g class="node" transform="translate(-237.13853457820693,-13.5119021510373)"><circle class="outline" cx="0" cy="0" r="25" fill="#57C7E3" stroke="#23b3d7" stroke-width="2px"/><text text-anchor="middle" pointer-events="none" font-family="sans-serif" dy="1.5625" font-size="25" fill="#2A2C34"/><text text-anchor="middle" pointer-events="none" font-family="sans-serif" dy="1.5625" font-size="25" fill="#2A2C34"/><text text-anchor="middle" pointer-events="none" x="0" y="0" font-size="10px" fill="#2A2C34" font-family="sans-serif"> Jerry</text><text text-anchor="middle" pointer-events="none" x="0" y="10" font-size="10px" fill="#2A2C34" font-family="sans-serif"> Maguire</text></g><g class="node" transform="translate(-197.241258831092,147.59897383098954)"><circle class="outline" cx="0" cy="0" r="25" fill="#F79767" stroke="#f36924" stroke-width="2px"/><text text-anchor="middle" pointer-events="none" font-family="sans-serif" dy="1.5625" font-size="25" fill="#FFFFFF"/><text text-anchor="middle" pointer-events="none" font-family="sans-serif" dy="1.5625" font-size="25" fill="#FFFFFF"/><text text-anchor="middle" pointer-events="none" x="0" y="0" font-size="10px" fill="#FFFFFF" font-family="sans-serif"> Lana</text><text text-anchor="middle" pointer-events="none" x="0" y="10" font-size="10px" fill="#FFFFFF" font-family="sans-serif"> Wacho…</text></g><g class="node" transform="translate(-99.000579239081,188.31428149197814)"><circle class="outline" cx="0" cy="0" r="25" fill="#57C7E3" stroke="#23b3d7" stroke-width="2px"/><text text-anchor="middle" pointer-events="none" font-family="sans-serif" dy="1.5625" font-size="25" fill="#2A2C34"/><text text-anchor="middle" pointer-events="none" font-family="sans-serif" dy="1.5625" font-size="25" fill="#2A2C34"/><text text-anchor="middle" pointer-events="none" x="0" y="0" font-size="10px" fill="#2A2C34" font-family="sans-serif"> Speed</text><text text-anchor="middle" pointer-events="none" x="0" y="10" font-size="10px" fill="#2A2C34" font-family="sans-serif"> Racer</text></g><g class="node" transform="translate(-154.69097592763137,279.5622788695824)"><circle class="outline" cx="0" cy="0" r="25" fill="#F79767" stroke="#f36924" stroke-width="2px"/><text text-anchor="middle" pointer-events="none" font-family="sans-serif" dy="1.5625" font-size="25" fill="#FFFFFF"/><text text-anchor="middle" pointer-events="none" font-family="sans-serif" dy="1.5625" font-size="25" fill="#FFFFFF"/><text text-anchor="middle" pointer-events="none" x="0" y="0" font-size="10px" fill="#FFFFFF" font-family="sans-serif"> Lilly</text><text text-anchor="middle" pointer-events="none" x="0" y="10" font-size="10px" fill="#FFFFFF" font-family="sans-serif"> Wacho…</text></g><g class="node" transform="translate(-51.17343683776315,423.88418748350904)"><circle class="outline" cx="0" cy="0" r="25" fill="#F79767" stroke="#f36924" stroke-width="2px"/><text text-anchor="middle" pointer-events="none" font-family="sans-serif" dy="1.5625" font-size="25" fill="#FFFFFF"/><text text-anchor="middle" pointer-events="none" font-family="sans-serif" dy="1.5625" font-size="25" fill="#FFFFFF"/><text text-anchor="middle" pointer-events="none" x="0" y="0" font-size="10px" fill="#FFFFFF" font-family="sans-serif"> Nancy</text><text text-anchor="middle" pointer-events="none" x="0" y="10" font-size="10px" fill="#FFFFFF" font-family="sans-serif"> Meyers</text></g><g class="node" transform="translate(50.55738727142829,452.5970494255415)"><circle class="outline" cx="0" cy="0" r="25" fill="#57C7E3" stroke="#23b3d7" stroke-width="2px"/><text text-anchor="middle" pointer-events="none" font-family="sans-serif" dy="1.5625" font-size="25" fill="#2A2C34"/><text text-anchor="middle" pointer-events="none" x="0" y="5" font-size="10px" fill="#2A2C34" font-family="sans-serif"> Somethi…</text></g></g></svg>