<svg xmlns="http://www.w3.org/2000/svg" width="251.6318359375" height="255.22142028808594" viewBox="-29.47808074951172 -20.945663452148438 251.6318359375 255.22142028808594"><title>Neo4j Graph Visualization</title><desc>Created using Neo4j (http://www.neo4j.com/)</desc><g class="layer relationships"><g class="relationship" transform="translate(149.5434062916519 205.2757521805058) rotate(234.17022590121917)"><path class="outline" fill="#A5ABB6" stroke="none" d="M 25 0.5 L 29.016538851788347 0.5 L 29.016538851788347 -0.5 L 25 -0.5 Z M 75.90716385178834 0.5 L 79.9237027035767 0.5 L 79.9237027035767 3.5 L 86.9237027035767 0 L 79.9237027035767 -3.5 L 79.9237027035767 -0.5 L 75.90716385178834 -0.5 Z"/><text text-anchor="middle" pointer-events="none" font-size="8px" fill="#000000" x="52.46185135178835" y="3" transform="rotate(180 52.46185135178835 0)" font-family="sans-serif">DIRECTED</text></g><g class="relationship" transform="translate(193.15375371359772 90.18257598795418) rotate(527.4215461211618)"><path class="outline" fill="#A5ABB6" stroke="none" d="M 25 0.5 L 34.519163887639685 0.5 L 34.519163887639685 -0.5 L 25 -0.5 Z M 70.29260138763968 0.5 L 79.81176527527937 0.5 L 79.81176527527937 3.5 L 86.81176527527937 0 L 79.81176527527937 -3.5 L 79.81176527527937 -0.5 L 70.29260138763968 -0.5 Z"/><text text-anchor="middle" pointer-events="none" font-size="8px" fill="#000000" x="52.405882637639685" y="3" transform="rotate(180 52.405882637639685 0)" font-family="sans-serif">WROTE</text></g><g class="relationship" transform="translate(118.09957133866845 8.054337220889742) rotate(467.7451301084099)"><path class="outline" fill="#A5ABB6" stroke="none" d="M 25 0.5 L 29.61740431516923 0.5 L 29.61740431516923 -0.5 L 25 -0.5 Z M 75.17990431516924 0.5 L 79.79730863033846 0.5 L 79.79730863033846 3.5 L 86.79730863033846 0 L 79.79730863033846 -3.5 L 79.79730863033846 -0.5 L 75.17990431516924 -0.5 Z"/><text text-anchor="middle" pointer-events="none" font-size="8px" fill="#000000" x="52.39865431516923" y="3" transform="rotate(180 52.39865431516923 0)" font-family="sans-serif">ACTED_IN</text></g><g class="relationship" transform="translate(-0.47808015693273365 41.18934107191913) rotate(400.9556503820422)"><path class="outline" fill="#A5ABB6" stroke="none" d="M 25 0.5 L 29.66536792503119 0.5 L 29.66536792503119 -0.5 L 25 -0.5 Z M 75.22786792503119 0.5 L 79.89323585006238 0.5 L 79.89323585006238 3.5 L 86.89323585006238 0 L 79.89323585006238 -3.5 L 79.89323585006238 -0.5 L 75.22786792503119 -0.5 Z"/><text text-anchor="middle" pointer-events="none" font-size="8px" fill="#000000" x="52.44661792503119" y="3" font-family="sans-serif">ACTED_IN</text></g><g class="relationship" transform="translate(3.243694115042156 188.4787388365798) rotate(317.5296130837119)"><path class="outline" fill="#A5ABB6" stroke="none" d="M 25 0.5 L 28.47676678761313 0.5 L 28.47676678761313 -0.5 L 25 -0.5 Z M 74.03926678761313 0.5 L 77.51603357522626 0.5 L 77.51603357522626 3.5 L 84.51603357522626 0 L 77.51603357522626 -3.5 L 77.51603357522626 -0.5 L 74.03926678761313 -0.5 Z"/><text text-anchor="middle" pointer-events="none" font-size="8px" fill="#000000" x="51.25801678761313" y="3" font-family="sans-serif">ACTED_IN</text></g></g><g class="layer nodes"><g class="node" transform="translate(149.5434062916519,205.2757521805058)"><circle class="outline" cx="0" cy="0" r="25" fill="#F79767" stroke="#f36924" stroke-width="2px"/><text text-anchor="middle" pointer-events="none" font-family="sans-serif" dy="1.5625" font-size="25" fill="#FFFFFF"/><text text-anchor="middle" pointer-events="none" font-family="sans-serif" dy="1.5625" font-size="25" fill="#FFFFFF"/><text text-anchor="middle" pointer-events="none" x="0" y="0" font-size="10px" fill="#FFFFFF" font-family="sans-serif"> Joe</text><text text-anchor="middle" pointer-events="none" x="0" y="10" font-size="10px" fill="#FFFFFF" font-family="sans-serif"> Johnston</text></g><g class="node" transform="translate(84.02561326840123,114.53252089441425)"><circle class="outline" cx="0" cy="0" r="25" fill="#57C7E3" stroke="#23b3d7" stroke-width="2px"/><text text-anchor="middle" pointer-events="none" font-family="sans-serif" dy="1.5625" font-size="25" fill="#2A2C34"/><text text-anchor="middle" pointer-events="none" font-family="sans-serif" dy="1.5625" font-size="25" fill="#2A2C34"/><text text-anchor="middle" pointer-events="none" font-family="sans-serif" dy="1.5625" font-size="25" fill="#2A2C34"/><text text-anchor="middle" pointer-events="none" x="0" y="-5" font-size="10px" fill="#2A2C34" font-family="sans-serif"> Captain</text><text text-anchor="middle" pointer-events="none" x="0" y="5" font-size="10px" fill="#2A2C34" font-family="sans-serif"> America:</text><text text-anchor="middle" pointer-events="none" x="0" y="15" font-size="10px" fill="#2A2C34" font-family="sans-serif"> Pierw…</text></g><g class="node" transform="translate(193.15375371359772,90.18257598795418)"><circle class="outline" cx="0" cy="0" r="25" fill="#F79767" stroke="#f36924" stroke-width="2px"/><text text-anchor="middle" pointer-events="none" font-family="sans-serif" dy="1.5625" font-size="25" fill="#FFFFFF"/><text text-anchor="middle" pointer-events="none" x="0" y="5" font-size="10px" fill="#FFFFFF" font-family="sans-serif"> Christop…</text></g><g class="node" transform="translate(118.09957133866845,8.054337220889742)"><circle class="outline" cx="0" cy="0" r="25" fill="#F79767" stroke="#f36924" stroke-width="2px"/><text text-anchor="middle" pointer-events="none" font-family="sans-serif" dy="1.5625" font-size="25" fill="#FFFFFF"/><text text-anchor="middle" pointer-events="none" x="0" y="5" font-size="10px" fill="#FFFFFF" font-family="sans-serif"> Sebastian</text></g><g class="node" transform="translate(-0.47808015693273365,41.18934107191913)"><circle class="outline" cx="0" cy="0" r="25" fill="#F79767" stroke="#f36924" stroke-width="2px"/><text text-anchor="middle" pointer-events="none" font-family="sans-serif" dy="1.5625" font-size="25" fill="#FFFFFF"/><text text-anchor="middle" pointer-events="none" font-family="sans-serif" dy="1.5625" font-size="25" fill="#FFFFFF"/><text text-anchor="middle" pointer-events="none" x="0" y="0" font-size="10px" fill="#FFFFFF" font-family="sans-serif"> Hayley</text><text text-anchor="middle" pointer-events="none" x="0" y="10" font-size="10px" fill="#FFFFFF" font-family="sans-serif"> Atwell</text></g><g class="node" transform="translate(3.243694115042156,188.4787388365798)"><circle class="outline" cx="0" cy="0" r="25" fill="#F79767" stroke="#f36924" stroke-width="2px"/><text text-anchor="middle" pointer-events="none" font-family="sans-serif" dy="1.5625" font-size="25" fill="#FFFFFF"/><text text-anchor="middle" pointer-events="none" font-family="sans-serif" dy="1.5625" font-size="25" fill="#FFFFFF"/><text text-anchor="middle" pointer-events="none" x="0" y="0" font-size="10px" fill="#FFFFFF" font-family="sans-serif"> Chris</text><text text-anchor="middle" pointer-events="none" x="0" y="10" font-size="10px" fill="#FFFFFF" font-family="sans-serif"> Evans</text></g></g></svg>